<svg width="57" height="56" viewBox="0 0 57 56" fill="none" xmlns="http://www.w3.org/2000/svg">
<g id="done_FILL0_wght400_GRAD0_opsz48 (1) 1">
<path id="Vector" d="M22.7165 40.9498C22.4832 40.9498 22.2693 40.9109 22.0749 40.8331C21.8804 40.7553 21.686 40.6192 21.4915 40.4248L10.9332 29.8664C10.5832 29.5164 10.4082 29.0887 10.4082 28.5831C10.4082 28.0776 10.5832 27.6498 10.9332 27.2998C11.2832 26.9498 11.6915 26.7748 12.1582 26.7748C12.6249 26.7748 13.0332 26.9498 13.3832 27.2998L22.7165 36.6331L43.8915 15.4581C44.2415 15.1081 44.6596 14.9331 45.1457 14.9331C45.6318 14.9331 46.0499 15.1081 46.3999 15.4581C46.7499 15.8081 46.9249 16.2262 46.9249 16.7123C46.9249 17.1984 46.7499 17.6164 46.3999 17.9664L23.9415 40.4248C23.7471 40.6192 23.5526 40.7553 23.3582 40.8331C23.1638 40.9109 22.9499 40.9498 22.7165 40.9498Z" fill="#3FC600"/>
</g>
</svg>
