<svg width="40" height="40" viewBox="0 0 40 40" fill="none" xmlns="http://www.w3.org/2000/svg">
<g id="draft_FILL0_wght300_GRAD0_opsz24">
<path id="Vector" d="M10.9208 35.1552C10.115 35.1552 9.43294 34.876 8.87461 34.3177C8.31628 33.7593 8.03711 33.0772 8.03711 32.2714V7.72942C8.03711 6.92361 8.31628 6.24154 8.87461 5.6832C9.43294 5.12487 10.115 4.8457 10.9208 4.8457H22.3973C22.7818 4.8457 23.1515 4.92036 23.5063 5.06968C23.8611 5.21896 24.1694 5.4245 24.4313 5.68628L31.125 12.3801C31.3868 12.6419 31.5923 12.9502 31.7416 13.305C31.8909 13.6598 31.9656 14.0295 31.9656 14.414V32.2714C31.9656 33.0772 31.6864 33.7593 31.1281 34.3177C30.5698 34.876 29.8877 35.1552 29.0819 35.1552H10.9208ZM22.3943 12.9752V7.23852H10.9208C10.7981 7.23852 10.6856 7.28965 10.5833 7.3919C10.4811 7.49419 10.4299 7.60669 10.4299 7.72942V32.2714C10.4299 32.3942 10.4811 32.5067 10.5833 32.609C10.6856 32.7112 10.7981 32.7623 10.9208 32.7623H29.0819C29.2046 32.7623 29.3171 32.7112 29.4194 32.609C29.5217 32.5067 29.5728 32.3942 29.5728 32.2714V14.4171H23.8361C23.425 14.4171 23.082 14.2795 22.8069 14.0044C22.5318 13.7293 22.3943 13.3863 22.3943 12.9752Z" fill="white"/>
</g>
</svg>
