<svg width="223" height="94" viewBox="0 0 223 94" fill="none" xmlns="http://www.w3.org/2000/svg">
<path d="M12.6165 58.7273L14.7756 64.8494H14.8608L17.0199 58.7273H17.9432L15.2727 66H14.3636L11.6932 58.7273H12.6165ZM20.7415 66.1136C20.2159 66.1136 19.7625 65.9976 19.3814 65.7656C19.0026 65.5312 18.7102 65.2045 18.5043 64.7855C18.3007 64.3641 18.1989 63.8741 18.1989 63.3153C18.1989 62.7566 18.3007 62.2642 18.5043 61.8381C18.7102 61.4096 18.9967 61.0758 19.3636 60.8366C19.733 60.5952 20.1638 60.4744 20.6562 60.4744C20.9403 60.4744 21.2209 60.5218 21.4979 60.6165C21.7749 60.7112 22.027 60.8651 22.2543 61.0781C22.4815 61.2888 22.6626 61.5682 22.7976 61.9162C22.9325 62.2642 23 62.6927 23 63.2017V63.5568H18.7955V62.8324H22.1477C22.1477 62.5246 22.0862 62.25 21.9631 62.0085C21.8423 61.767 21.6695 61.5765 21.4446 61.4368C21.2221 61.2971 20.9593 61.2273 20.6562 61.2273C20.3224 61.2273 20.0336 61.3101 19.7898 61.4759C19.5483 61.6392 19.3625 61.8523 19.2322 62.1151C19.102 62.3778 19.0369 62.6596 19.0369 62.9602V63.4432C19.0369 63.8551 19.108 64.2043 19.25 64.4908C19.3944 64.7749 19.5945 64.9915 19.8501 65.1406C20.1058 65.2874 20.4029 65.3608 20.7415 65.3608C20.9616 65.3608 21.1605 65.33 21.3381 65.2685C21.518 65.2045 21.6731 65.1098 21.8033 64.9844C21.9335 64.8565 22.0341 64.6979 22.1051 64.5085L22.9148 64.7358C22.8295 65.0104 22.6863 65.2519 22.4851 65.4602C22.2839 65.6662 22.0353 65.8272 21.7393 65.9432C21.4434 66.0568 21.1108 66.1136 20.7415 66.1136ZM24.2749 66V60.5455H25.0845V61.3693H25.1413C25.2408 61.0994 25.4207 60.8804 25.6811 60.7124C25.9415 60.5443 26.2351 60.4602 26.5618 60.4602C26.6233 60.4602 26.7003 60.4614 26.7926 60.4638C26.8849 60.4661 26.9548 60.4697 27.0021 60.4744V61.3267C26.9737 61.3196 26.9086 61.3089 26.8068 61.2947C26.7074 61.2782 26.602 61.2699 26.4908 61.2699C26.2256 61.2699 25.9889 61.3255 25.7805 61.4368C25.5746 61.5457 25.4112 61.6972 25.2905 61.8913C25.1721 62.0831 25.1129 62.3021 25.1129 62.5483V66H24.2749ZM31.8592 61.767L31.1064 61.9801C31.059 61.8546 30.9892 61.7327 30.8968 61.6143C30.8069 61.4936 30.6838 61.3942 30.5275 61.3161C30.3713 61.2379 30.1712 61.1989 29.9274 61.1989C29.5936 61.1989 29.3154 61.2758 29.0929 61.4297C28.8727 61.5812 28.7626 61.7741 28.7626 62.0085C28.7626 62.2169 28.8384 62.3814 28.9899 62.5021C29.1414 62.6229 29.3781 62.7235 29.7001 62.804L30.5098 63.0028C30.9975 63.1212 31.3609 63.3023 31.6 63.5462C31.8391 63.7876 31.9586 64.099 31.9586 64.4801C31.9586 64.7926 31.8687 65.072 31.6887 65.3182C31.5112 65.5644 31.2626 65.7585 30.943 65.9006C30.6234 66.0426 30.2517 66.1136 29.8279 66.1136C29.2716 66.1136 28.8111 65.9929 28.4466 65.7514C28.082 65.5099 27.8511 65.1572 27.7541 64.6932L28.5495 64.4943C28.6253 64.7879 28.7685 65.008 28.9792 65.1548C29.1923 65.3016 29.4705 65.375 29.8137 65.375C30.2044 65.375 30.5145 65.2921 30.7441 65.1264C30.9761 64.9583 31.0922 64.7571 31.0922 64.5227C31.0922 64.3333 31.0259 64.1747 30.8933 64.0469C30.7607 63.9167 30.5571 63.8196 30.2825 63.7557L29.3734 63.5426C28.8739 63.4242 28.5069 63.2408 28.2725 62.9922C28.0405 62.7412 27.9245 62.4276 27.9245 62.0511C27.9245 61.7434 28.0109 61.4711 28.1838 61.2344C28.359 60.9976 28.5969 60.8118 28.8975 60.6768C29.2006 60.5419 29.5439 60.4744 29.9274 60.4744C30.4672 60.4744 30.8909 60.5928 31.1987 60.8295C31.5088 61.0663 31.729 61.3788 31.8592 61.767ZM33.2202 66V60.5455H34.0582V66H33.2202ZM33.6463 59.6364C33.483 59.6364 33.3421 59.5807 33.2237 59.4695C33.1077 59.3582 33.0497 59.2244 33.0497 59.0682C33.0497 58.9119 33.1077 58.7782 33.2237 58.6669C33.3421 58.5556 33.483 58.5 33.6463 58.5C33.8097 58.5 33.9493 58.5556 34.0653 58.6669C34.1837 58.7782 34.2429 58.9119 34.2429 59.0682C34.2429 59.2244 34.1837 59.3582 34.0653 59.4695C33.9493 59.5807 33.8097 59.6364 33.6463 59.6364ZM37.8091 66.1136C37.3167 66.1136 36.8846 65.9964 36.513 65.7621C36.1436 65.5277 35.8548 65.1998 35.6465 64.7784C35.4405 64.357 35.3375 63.8646 35.3375 63.3011C35.3375 62.733 35.4405 62.237 35.6465 61.8132C35.8548 61.3894 36.1436 61.0604 36.513 60.826C36.8846 60.5916 37.3167 60.4744 37.8091 60.4744C38.3016 60.4744 38.7324 60.5916 39.1017 60.826C39.4734 61.0604 39.7623 61.3894 39.9682 61.8132C40.1766 62.237 40.2807 62.733 40.2807 63.3011C40.2807 63.8646 40.1766 64.357 39.9682 64.7784C39.7623 65.1998 39.4734 65.5277 39.1017 65.7621C38.7324 65.9964 38.3016 66.1136 37.8091 66.1136ZM37.8091 65.3608C38.1832 65.3608 38.4909 65.2649 38.7324 65.0732C38.9739 64.8814 39.1526 64.6293 39.2686 64.3168C39.3846 64.0043 39.4426 63.6657 39.4426 63.3011C39.4426 62.9366 39.3846 62.5968 39.2686 62.282C39.1526 61.9671 38.9739 61.7126 38.7324 61.5185C38.4909 61.3243 38.1832 61.2273 37.8091 61.2273C37.4351 61.2273 37.1273 61.3243 36.8858 61.5185C36.6444 61.7126 36.4656 61.9671 36.3496 62.282C36.2336 62.5968 36.1756 62.9366 36.1756 63.3011C36.1756 63.6657 36.2336 64.0043 36.3496 64.3168C36.4656 64.6293 36.6444 64.8814 36.8858 65.0732C37.1273 65.2649 37.4351 65.3608 37.8091 65.3608ZM42.3981 62.7188V66H41.56V60.5455H42.3697V61.3977H42.4407C42.5685 61.1207 42.7627 60.8982 43.0231 60.7301C43.2835 60.5597 43.6197 60.4744 44.0316 60.4744C44.4009 60.4744 44.7241 60.5502 45.0011 60.7017C45.2781 60.8509 45.4935 61.0781 45.6474 61.3835C45.8013 61.6866 45.8782 62.0701 45.8782 62.5341V66H45.0401V62.5909C45.0401 62.1624 44.9289 61.8286 44.7063 61.5895C44.4838 61.348 44.1784 61.2273 43.7901 61.2273C43.5226 61.2273 43.2835 61.2853 43.0728 61.4013C42.8645 61.5173 42.6999 61.6866 42.5792 61.9091C42.4585 62.1316 42.3981 62.4015 42.3981 62.7188ZM48.0204 66.0568C47.8452 66.0568 47.6949 65.9941 47.5694 65.8686C47.444 65.7431 47.3812 65.5928 47.3812 65.4176C47.3812 65.2424 47.444 65.0921 47.5694 64.9666C47.6949 64.8411 47.8452 64.7784 48.0204 64.7784C48.1956 64.7784 48.3459 64.8411 48.4714 64.9666C48.5969 65.0921 48.6596 65.2424 48.6596 65.4176C48.6596 65.5336 48.63 65.6402 48.5708 65.7372C48.514 65.8343 48.4371 65.9124 48.34 65.9716C48.2453 66.0284 48.1388 66.0568 48.0204 66.0568ZM48.0204 62.0085C47.8452 62.0085 47.6949 61.9458 47.5694 61.8203C47.444 61.6948 47.3812 61.5445 47.3812 61.3693C47.3812 61.1941 47.444 61.0438 47.5694 60.9183C47.6949 60.7929 47.8452 60.7301 48.0204 60.7301C48.1956 60.7301 48.3459 60.7929 48.4714 60.9183C48.5969 61.0438 48.6596 61.1941 48.6596 61.3693C48.6596 61.4853 48.63 61.5919 48.5708 61.6889C48.514 61.786 48.4371 61.8641 48.34 61.9233C48.2453 61.9801 48.1388 62.0085 48.0204 62.0085ZM52.7914 64.5085V63.7841L55.9874 58.7273H56.513V59.8494H56.1578L53.7431 63.6705V63.7273H58.0471V64.5085H52.7914ZM56.2147 66V64.2884V63.951V58.7273H57.0527V66H56.2147ZM59.661 66.0568C59.4859 66.0568 59.3355 65.9941 59.21 65.8686C59.0846 65.7431 59.0218 65.5928 59.0218 65.4176C59.0218 65.2424 59.0846 65.0921 59.21 64.9666C59.3355 64.8411 59.4859 64.7784 59.661 64.7784C59.8362 64.7784 59.9866 64.8411 60.112 64.9666C60.2375 65.0921 60.3002 65.2424 60.3002 65.4176C60.3002 65.5336 60.2707 65.6402 60.2115 65.7372C60.1547 65.8343 60.0777 65.9124 59.9806 65.9716C59.8859 66.0284 59.7794 66.0568 59.661 66.0568ZM63.9162 66.0994C63.4995 66.0994 63.1243 66.0166 62.7905 65.8509C62.4567 65.6851 62.1892 65.4579 61.9879 65.169C61.7867 64.8802 61.6766 64.5511 61.6577 64.1818H62.5099C62.5431 64.5109 62.6922 64.7831 62.9574 64.9986C63.2249 65.2116 63.5445 65.3182 63.9162 65.3182C64.2145 65.3182 64.4796 65.2483 64.7116 65.1087C64.946 64.969 65.1295 64.7772 65.2621 64.5334C65.397 64.2872 65.4645 64.009 65.4645 63.6989C65.4645 63.3816 65.3946 63.0987 65.255 62.8501C65.1177 62.5992 64.9283 62.4015 64.6868 62.2571C64.4453 62.1127 64.1695 62.0393 63.8594 62.0369C63.6368 62.0346 63.4084 62.0689 63.174 62.1399C62.9396 62.2086 62.7467 62.2973 62.5952 62.4062L61.7713 62.3068L62.2116 58.7273H65.9901V59.5085H62.9503L62.6946 61.6534H62.7372C62.8864 61.535 63.0734 61.4368 63.2983 61.3587C63.5232 61.2805 63.7576 61.2415 64.0014 61.2415C64.4465 61.2415 64.843 61.348 65.1911 61.5611C65.5414 61.7718 65.8161 62.0606 66.0149 62.4276C66.2161 62.7945 66.3168 63.2135 66.3168 63.6847C66.3168 64.1487 66.2126 64.563 66.0043 64.9276C65.7983 65.2898 65.5142 65.5762 65.152 65.7869C64.7898 65.9953 64.3778 66.0994 63.9162 66.0994ZM68.079 66.0568C67.9038 66.0568 67.7535 65.9941 67.628 65.8686C67.5025 65.7431 67.4398 65.5928 67.4398 65.4176C67.4398 65.2424 67.5025 65.0921 67.628 64.9666C67.7535 64.8411 67.9038 64.7784 68.079 64.7784C68.2542 64.7784 68.4045 64.8411 68.53 64.9666C68.6555 65.0921 68.7182 65.2424 68.7182 65.4176C68.7182 65.5336 68.6886 65.6402 68.6294 65.7372C68.5726 65.8343 68.4957 65.9124 68.3986 65.9716C68.3039 66.0284 68.1974 66.0568 68.079 66.0568ZM72.3262 66.0994C71.7911 66.0994 71.3354 65.9538 70.959 65.6626C70.5826 65.3691 70.2949 64.9441 70.0961 64.3878C69.8972 63.8291 69.7978 63.1544 69.7978 62.3636C69.7978 61.5777 69.8972 60.9065 70.0961 60.3501C70.2973 59.7914 70.5861 59.3653 70.9625 59.0717C71.3413 58.7758 71.7959 58.6278 72.3262 58.6278C72.8565 58.6278 73.3098 58.7758 73.6863 59.0717C74.065 59.3653 74.3539 59.7914 74.5527 60.3501C74.754 60.9065 74.8546 61.5777 74.8546 62.3636C74.8546 63.1544 74.7551 63.8291 74.5563 64.3878C74.3574 64.9441 74.0698 65.3691 73.6934 65.6626C73.3169 65.9538 72.8612 66.0994 72.3262 66.0994ZM72.3262 65.3182C72.8565 65.3182 73.2684 65.0625 73.562 64.5511C73.8555 64.0398 74.0023 63.3106 74.0023 62.3636C74.0023 61.7339 73.9348 61.1977 73.7999 60.755C73.6673 60.3123 73.4756 59.9749 73.2246 59.7429C72.976 59.5109 72.6766 59.3949 72.3262 59.3949C71.8006 59.3949 71.3899 59.6541 71.0939 60.1726C70.798 60.6887 70.65 61.419 70.65 62.3636C70.65 62.9934 70.7163 63.5284 70.8489 63.9688C70.9815 64.4091 71.1721 64.7441 71.4206 64.9737C71.6716 65.2034 71.9734 65.3182 72.3262 65.3182Z" fill="white"/>
<path d="M13.0028 81.5381L11.3409 76.0835H12.2216L13.4006 80.2597H13.4574L14.6222 76.0835H15.517L16.6676 80.2455H16.7244L17.9034 76.0835H18.7841L17.1222 81.5381H16.2983L15.1051 77.3477H15.0199L13.8267 81.5381H13.0028ZM21.1278 81.5381L19.4659 76.0835H20.3466L21.5256 80.2597H21.5824L22.7472 76.0835H23.642L24.7926 80.2455H24.8494L26.0284 76.0835H26.9091L25.2472 81.5381H24.4233L23.2301 77.3477H23.1449L21.9517 81.5381H21.1278ZM29.2528 81.5381L27.5909 76.0835H28.4716L29.6506 80.2597H29.7074L30.8722 76.0835H31.767L32.9176 80.2455H32.9744L34.1534 76.0835H35.0341L33.3722 81.5381H32.5483L31.3551 77.3477H31.2699L30.0767 81.5381H29.2528ZM36.0107 81.5949C35.8355 81.5949 35.6851 81.5322 35.5597 81.4067C35.4342 81.2812 35.3714 81.1309 35.3714 80.9557C35.3714 80.7805 35.4342 80.6302 35.5597 80.5047C35.6851 80.3792 35.8355 80.3165 36.0107 80.3165C36.1858 80.3165 36.3362 80.3792 36.4616 80.5047C36.5871 80.6302 36.6499 80.7805 36.6499 80.9557C36.6499 81.0717 36.6203 81.1782 36.5611 81.2753C36.5043 81.3724 36.4273 81.4505 36.3303 81.5097C36.2356 81.5665 36.129 81.5949 36.0107 81.5949ZM38.1538 83.5835V76.0835H38.9634V76.95H39.0629C39.1244 76.8553 39.2096 76.7346 39.3185 76.5878C39.4298 76.4387 39.5884 76.3061 39.7944 76.1901C40.0027 76.0717 40.2844 76.0125 40.6396 76.0125C41.0988 76.0125 41.5037 76.1273 41.854 76.357C42.2044 76.5866 42.4779 76.9121 42.6744 77.3335C42.8709 77.7549 42.9691 78.2521 42.9691 78.825C42.9691 79.4027 42.8709 79.9034 42.6744 80.3271C42.4779 80.7485 42.2056 81.0753 41.8576 81.3073C41.5096 81.5369 41.1083 81.6517 40.6538 81.6517C40.3034 81.6517 40.0228 81.5937 39.8121 81.4777C39.6014 81.3593 39.4393 81.2256 39.3256 81.0764C39.212 80.9249 39.1244 80.7994 39.0629 80.7H38.9918V83.5835H38.1538ZM38.9776 78.8108C38.9776 79.2227 39.038 79.5861 39.1587 79.901C39.2795 80.2135 39.4558 80.4585 39.6879 80.6361C39.9199 80.8113 40.204 80.8989 40.5401 80.8989C40.8905 80.8989 41.1829 80.8066 41.4173 80.6219C41.654 80.4349 41.8316 80.1839 41.9499 79.8691C42.0707 79.5518 42.131 79.1991 42.131 78.8108C42.131 78.4273 42.0719 78.0816 41.9535 77.7739C41.8375 77.4637 41.6611 77.2187 41.4244 77.0388C41.19 76.8565 40.8952 76.7654 40.5401 76.7654C40.1992 76.7654 39.9128 76.8518 39.6808 77.0246C39.4487 77.195 39.2736 77.4342 39.1552 77.7419C39.0368 78.0473 38.9776 78.4036 38.9776 78.8108ZM44.2475 81.5381V76.0835H45.0572V76.9074H45.114C45.2134 76.6375 45.3933 76.4185 45.6538 76.2504C45.9142 76.0824 46.2077 75.9983 46.5344 75.9983C46.596 75.9983 46.6729 75.9995 46.7653 76.0019C46.8576 76.0042 46.9274 76.0078 46.9748 76.0125V76.8648C46.9464 76.8577 46.8813 76.847 46.7795 76.8328C46.68 76.8163 46.5747 76.808 46.4634 76.808C46.1983 76.808 45.9615 76.8636 45.7532 76.9749C45.5472 77.0838 45.3839 77.2353 45.2631 77.4294C45.1448 77.6212 45.0856 77.8402 45.0856 78.0864V81.5381H44.2475ZM50.0181 81.6517C49.5257 81.6517 49.0936 81.5345 48.7219 81.3002C48.3526 81.0658 48.0638 80.7379 47.8555 80.3165C47.6495 79.8951 47.5465 79.4027 47.5465 78.8392C47.5465 78.271 47.6495 77.7751 47.8555 77.3513C48.0638 76.9275 48.3526 76.5985 48.7219 76.3641C49.0936 76.1297 49.5257 76.0125 50.0181 76.0125C50.5105 76.0125 50.9414 76.1297 51.3107 76.3641C51.6824 76.5985 51.9712 76.9275 52.1772 77.3513C52.3855 77.7751 52.4897 78.271 52.4897 78.8392C52.4897 79.4027 52.3855 79.8951 52.1772 80.3165C51.9712 80.7379 51.6824 81.0658 51.3107 81.3002C50.9414 81.5345 50.5105 81.6517 50.0181 81.6517ZM50.0181 80.8989C50.3922 80.8989 50.6999 80.803 50.9414 80.6112C51.1829 80.4195 51.3616 80.1673 51.4776 79.8548C51.5936 79.5423 51.6516 79.2038 51.6516 78.8392C51.6516 78.4746 51.5936 78.1349 51.4776 77.82C51.3616 77.5052 51.1829 77.2507 50.9414 77.0566C50.6999 76.8624 50.3922 76.7654 50.0181 76.7654C49.6441 76.7654 49.3363 76.8624 49.0948 77.0566C48.8533 77.2507 48.6746 77.5052 48.5586 77.82C48.4426 78.1349 48.3846 78.4746 48.3846 78.8392C48.3846 79.2038 48.4426 79.5423 48.5586 79.8548C48.6746 80.1673 48.8533 80.4195 49.0948 80.6112C49.3363 80.803 49.6441 80.8989 50.0181 80.8989ZM56.894 78.0296V78.8108H53.7122V78.0296H56.894ZM60.5845 81.6517C60.0732 81.6517 59.6328 81.531 59.2635 81.2895C58.8942 81.048 58.6101 80.7154 58.4112 80.2916C58.2124 79.8679 58.1129 79.3837 58.1129 78.8392C58.1129 78.2852 58.2147 77.7964 58.4183 77.3726C58.6243 76.9465 58.9107 76.6138 59.2777 76.3747C59.647 76.1333 60.0779 76.0125 60.5703 76.0125C60.9538 76.0125 61.2995 76.0835 61.6072 76.2256C61.915 76.3676 62.1671 76.5665 62.3636 76.8222C62.5601 77.0779 62.6821 77.3762 62.7294 77.7171H61.8913C61.8274 77.4685 61.6854 77.2483 61.4652 77.0566C61.2474 76.8624 60.9538 76.7654 60.5845 76.7654C60.2578 76.7654 59.9714 76.8506 59.7251 77.021C59.4813 77.1891 59.2907 77.4271 59.1534 77.7348C59.0185 78.0402 58.951 78.3989 58.951 78.8108C58.951 79.2322 59.0173 79.5992 59.1499 79.9117C59.2848 80.2242 59.4742 80.4668 59.718 80.6396C59.9643 80.8125 60.2531 80.8989 60.5845 80.8989C60.8023 80.8989 61 80.861 61.1776 80.7852C61.3551 80.7095 61.5054 80.6006 61.6286 80.4585C61.7517 80.3165 61.8393 80.146 61.8913 79.9472H62.7294C62.6821 80.2691 62.5649 80.5592 62.3778 80.8172C62.1932 81.0729 61.9482 81.2765 61.6428 81.428C61.3397 81.5771 60.987 81.6517 60.5845 81.6517ZM67.8182 77.3051L67.0653 77.5182C67.018 77.3927 66.9482 77.2708 66.8558 77.1524C66.7659 77.0317 66.6428 76.9323 66.4865 76.8541C66.3303 76.776 66.1302 76.7369 65.8864 76.7369C65.5526 76.7369 65.2744 76.8139 65.0518 76.9678C64.8317 77.1193 64.7216 77.3122 64.7216 77.5466C64.7216 77.7549 64.7973 77.9195 64.9489 78.0402C65.1004 78.161 65.3371 78.2616 65.6591 78.3421L66.4688 78.5409C66.9564 78.6593 67.3198 78.8404 67.5589 79.0843C67.7981 79.3257 67.9176 79.637 67.9176 80.0182C67.9176 80.3307 67.8277 80.6101 67.6477 80.8563C67.4702 81.1025 67.2216 81.2966 66.902 81.4387C66.5824 81.5807 66.2107 81.6517 65.7869 81.6517C65.2306 81.6517 64.7701 81.531 64.4055 81.2895C64.041 81.048 63.8101 80.6953 63.7131 80.2313L64.5085 80.0324C64.5843 80.326 64.7275 80.5461 64.9382 80.6929C65.1513 80.8397 65.4295 80.9131 65.7727 80.9131C66.1634 80.9131 66.4735 80.8302 66.7031 80.6645C66.9351 80.4964 67.0511 80.2952 67.0511 80.0608C67.0511 79.8714 66.9848 79.7128 66.8523 79.585C66.7197 79.4548 66.5161 79.3577 66.2415 79.2938L65.3324 79.0807C64.8329 78.9623 64.4659 78.7789 64.2315 78.5303C63.9995 78.2793 63.8835 77.9656 63.8835 77.5892C63.8835 77.2815 63.9699 77.0092 64.1428 76.7725C64.3179 76.5357 64.5559 76.3499 64.8565 76.2149C65.1596 76.08 65.5028 76.0125 65.8864 76.0125C66.4261 76.0125 66.8499 76.1309 67.1577 76.3676C67.4678 76.6044 67.688 76.9169 67.8182 77.3051ZM69.79 81.5949C69.6148 81.5949 69.4644 81.5322 69.339 81.4067C69.2135 81.2812 69.1507 81.1309 69.1507 80.9557C69.1507 80.7805 69.2135 80.6302 69.339 80.5047C69.4644 80.3792 69.6148 80.3165 69.79 80.3165C69.9651 80.3165 70.1155 80.3792 70.2409 80.5047C70.3664 80.6302 70.4292 80.7805 70.4292 80.9557C70.4292 81.0717 70.3996 81.1782 70.3404 81.2753C70.2836 81.3724 70.2066 81.4505 70.1096 81.5097C70.0149 81.5665 69.9083 81.5949 69.79 81.5949ZM71.9331 81.5381V76.0835H72.7711V81.5381H71.9331ZM72.3592 75.1744C72.1958 75.1744 72.055 75.1188 71.9366 75.0075C71.8206 74.8963 71.7626 74.7625 71.7626 74.6063C71.7626 74.45 71.8206 74.3163 71.9366 74.205C72.055 74.0937 72.1958 74.0381 72.3592 74.0381C72.5225 74.0381 72.6622 74.0937 72.7782 74.205C72.8966 74.3163 72.9558 74.45 72.9558 74.6063C72.9558 74.7625 72.8966 74.8963 72.7782 75.0075C72.6622 75.1188 72.5225 75.1744 72.3592 75.1744ZM75.1442 78.2568V81.5381H74.3061V76.0835H75.1158V76.9358H75.1868C75.3146 76.6588 75.5088 76.4363 75.7692 76.2682C76.0296 76.0977 76.3658 76.0125 76.7777 76.0125C77.147 76.0125 77.4702 76.0883 77.7472 76.2398C78.0241 76.3889 78.2396 76.6162 78.3935 76.9216C78.5473 77.2246 78.6243 77.6082 78.6243 78.0722V81.5381H77.7862V78.129C77.7862 77.7005 77.675 77.3667 77.4524 77.1276C77.2299 76.8861 76.9245 76.7654 76.5362 76.7654C76.2687 76.7654 76.0296 76.8234 75.8189 76.9394C75.6106 77.0554 75.446 77.2246 75.3253 77.4472C75.2045 77.6697 75.1442 77.9396 75.1442 78.2568Z" fill="white"/>
<line x1="82.502" y1="83.2563" x2="82.502" y2="71.8204" stroke="white" stroke-width="0.714744"/>
<path d="M90.3494 77.3051L89.5966 77.5182C89.5492 77.3927 89.4794 77.2708 89.3871 77.1524C89.2971 77.0317 89.174 76.9323 89.0178 76.8541C88.8615 76.776 88.6615 76.7369 88.4176 76.7369C88.0838 76.7369 87.8056 76.8139 87.5831 76.9678C87.3629 77.1193 87.2528 77.3122 87.2528 77.5466C87.2528 77.7549 87.3286 77.9195 87.4801 78.0402C87.6316 78.161 87.8684 78.2616 88.1903 78.3421L89 78.5409C89.4877 78.6593 89.8511 78.8404 90.0902 79.0843C90.3293 79.3257 90.4489 79.637 90.4489 80.0182C90.4489 80.3307 90.3589 80.6101 90.179 80.8563C90.0014 81.1025 89.7528 81.2966 89.4332 81.4387C89.1136 81.5807 88.742 81.6517 88.3182 81.6517C87.7618 81.6517 87.3014 81.531 86.9368 81.2895C86.5722 81.048 86.3414 80.6953 86.2443 80.2313L87.0398 80.0324C87.1155 80.326 87.2588 80.5461 87.4695 80.6929C87.6825 80.8397 87.9607 80.9131 88.304 80.9131C88.6946 80.9131 89.0047 80.8302 89.2344 80.6645C89.4664 80.4964 89.5824 80.2952 89.5824 80.0608C89.5824 79.8714 89.5161 79.7128 89.3835 79.585C89.2509 79.4548 89.0473 79.3577 88.7727 79.2938L87.8636 79.0807C87.3641 78.9623 86.9972 78.7789 86.7628 78.5303C86.5308 78.2793 86.4148 77.9656 86.4148 77.5892C86.4148 77.2815 86.5012 77.0092 86.674 76.7725C86.8492 76.5357 87.0871 76.3499 87.3878 76.2149C87.6908 76.08 88.0341 76.0125 88.4176 76.0125C88.9574 76.0125 89.3812 76.1309 89.6889 76.3676C89.9991 76.6044 90.2192 76.9169 90.3494 77.3051ZM95.1479 79.308V76.0835H95.986V81.5381H95.1479V80.6148H95.0911C94.9632 80.8918 94.7644 81.1273 94.4945 81.3215C94.2246 81.5132 93.8837 81.6091 93.4718 81.6091C93.1309 81.6091 92.8278 81.5345 92.5627 81.3854C92.2975 81.2339 92.0892 81.0066 91.9377 80.7036C91.7862 80.3982 91.7104 80.0135 91.7104 79.5494V76.0835H92.5485V79.4926C92.5485 79.8904 92.6597 80.2076 92.8823 80.4443C93.1072 80.6811 93.3936 80.7994 93.7417 80.7994C93.95 80.7994 94.1619 80.7462 94.3773 80.6396C94.5951 80.5331 94.7774 80.3698 94.9242 80.1496C95.0733 79.9294 95.1479 79.6489 95.1479 79.308ZM97.521 83.5835V76.0835H98.3306V76.95H98.43C98.4916 76.8553 98.5768 76.7346 98.6857 76.5878C98.797 76.4387 98.9556 76.3061 99.1616 76.1901C99.3699 76.0717 99.6516 76.0125 100.007 76.0125C100.466 76.0125 100.871 76.1273 101.221 76.357C101.572 76.5866 101.845 76.9121 102.042 77.3335C102.238 77.7549 102.336 78.2521 102.336 78.825C102.336 79.4027 102.238 79.9034 102.042 80.3271C101.845 80.7485 101.573 81.0753 101.225 81.3073C100.877 81.5369 100.475 81.6517 100.021 81.6517C99.6706 81.6517 99.39 81.5937 99.1793 81.4777C98.9686 81.3593 98.8065 81.2256 98.6928 81.0764C98.5792 80.9249 98.4916 80.7994 98.43 80.7H98.359V83.5835H97.521ZM98.3448 78.8108C98.3448 79.2227 98.4052 79.5861 98.5259 79.901C98.6467 80.2135 98.823 80.4585 99.055 80.6361C99.2871 80.8113 99.5711 80.8989 99.9073 80.8989C100.258 80.8989 100.55 80.8066 100.784 80.6219C101.021 80.4349 101.199 80.1839 101.317 79.8691C101.438 79.5518 101.498 79.1991 101.498 78.8108C101.498 78.4273 101.439 78.0816 101.321 77.7739C101.205 77.4637 101.028 77.2187 100.792 77.0388C100.557 76.8565 100.262 76.7654 99.9073 76.7654C99.5664 76.7654 99.2799 76.8518 99.0479 77.0246C98.8159 77.195 98.6407 77.4342 98.5224 77.7419C98.404 78.0473 98.3448 78.4036 98.3448 78.8108ZM103.615 83.5835V76.0835H104.424V76.95H104.524C104.585 76.8553 104.671 76.7346 104.779 76.5878C104.891 76.4387 105.049 76.3061 105.255 76.1901C105.464 76.0717 105.745 76.0125 106.1 76.0125C106.56 76.0125 106.965 76.1273 107.315 76.357C107.665 76.5866 107.939 76.9121 108.135 77.3335C108.332 77.7549 108.43 78.2521 108.43 78.825C108.43 79.4027 108.332 79.9034 108.135 80.3271C107.939 80.7485 107.667 81.0753 107.319 81.3073C106.971 81.5369 106.569 81.6517 106.115 81.6517C105.764 81.6517 105.484 81.5937 105.273 81.4777C105.062 81.3593 104.9 81.2256 104.787 81.0764C104.673 80.9249 104.585 80.7994 104.524 80.7H104.453V83.5835H103.615ZM104.439 78.8108C104.439 79.2227 104.499 79.5861 104.62 79.901C104.74 80.2135 104.917 80.4585 105.149 80.6361C105.381 80.8113 105.665 80.8989 106.001 80.8989C106.351 80.8989 106.644 80.8066 106.878 80.6219C107.115 80.4349 107.292 80.1839 107.411 79.8691C107.532 79.5518 107.592 79.1991 107.592 78.8108C107.592 78.4273 107.533 78.0816 107.414 77.7739C107.298 77.4637 107.122 77.2187 106.885 77.0388C106.651 76.8565 106.356 76.7654 106.001 76.7654C105.66 76.7654 105.374 76.8518 105.142 77.0246C104.91 77.195 104.734 77.4342 104.616 77.7419C104.498 78.0473 104.439 78.4036 104.439 78.8108ZM111.924 81.6517C111.432 81.6517 111 81.5345 110.628 81.3002C110.259 81.0658 109.97 80.7379 109.762 80.3165C109.556 79.8951 109.453 79.4027 109.453 78.8392C109.453 78.271 109.556 77.7751 109.762 77.3513C109.97 76.9275 110.259 76.5985 110.628 76.3641C111 76.1297 111.432 76.0125 111.924 76.0125C112.417 76.0125 112.848 76.1297 113.217 76.3641C113.589 76.5985 113.877 76.9275 114.083 77.3513C114.292 77.7751 114.396 78.271 114.396 78.8392C114.396 79.4027 114.292 79.8951 114.083 80.3165C113.877 80.7379 113.589 81.0658 113.217 81.3002C112.848 81.5345 112.417 81.6517 111.924 81.6517ZM111.924 80.8989C112.298 80.8989 112.606 80.803 112.848 80.6112C113.089 80.4195 113.268 80.1673 113.384 79.8548C113.5 79.5423 113.558 79.2038 113.558 78.8392C113.558 78.4746 113.5 78.1349 113.384 77.82C113.268 77.5052 113.089 77.2507 112.848 77.0566C112.606 76.8624 112.298 76.7654 111.924 76.7654C111.55 76.7654 111.243 76.8624 111.001 77.0566C110.76 77.2507 110.581 77.5052 110.465 77.82C110.349 78.1349 110.291 78.4746 110.291 78.8392C110.291 79.2038 110.349 79.5423 110.465 79.8548C110.581 80.1673 110.76 80.4195 111.001 80.6112C111.243 80.803 111.55 80.8989 111.924 80.8989ZM115.675 81.5381V76.0835H116.485V76.9074H116.542C116.641 76.6375 116.821 76.4185 117.081 76.2504C117.342 76.0824 117.635 75.9983 117.962 75.9983C118.024 75.9983 118.101 75.9995 118.193 76.0019C118.285 76.0042 118.355 76.0078 118.403 76.0125V76.8648C118.374 76.8577 118.309 76.847 118.207 76.8328C118.108 76.8163 118.002 76.808 117.891 76.808C117.626 76.808 117.389 76.8636 117.181 76.9749C116.975 77.0838 116.812 77.2353 116.691 77.4294C116.573 77.6212 116.513 77.8402 116.513 78.0864V81.5381H115.675ZM122.11 76.0835V76.7938H119.283V76.0835H122.11ZM120.107 74.7767H120.945V79.9756C120.945 80.2123 120.979 80.3899 121.048 80.5083C121.119 80.6243 121.209 80.7024 121.318 80.7426C121.429 80.7805 121.546 80.7994 121.67 80.7994C121.762 80.7994 121.838 80.7947 121.897 80.7852C121.956 80.7734 122.003 80.7639 122.039 80.7568L122.209 81.5097C122.153 81.531 122.073 81.5523 121.971 81.5736C121.87 81.5973 121.741 81.6091 121.584 81.6091C121.348 81.6091 121.116 81.5582 120.888 81.4564C120.663 81.3546 120.476 81.1995 120.327 80.9912C120.18 80.7829 120.107 80.5201 120.107 80.2029V74.7767ZM127.561 83.4557C126.836 83.4557 126.196 83.3563 125.64 83.1574C125.083 82.9609 124.616 82.6709 124.237 82.2874C123.858 81.9039 123.572 81.4339 123.378 80.8776C123.184 80.3212 123.086 79.6844 123.086 78.9671C123.086 78.2734 123.185 77.6531 123.381 77.1063C123.58 76.5594 123.868 76.0954 124.244 75.7142C124.623 75.3307 125.082 75.0383 125.622 74.8371C126.164 74.6359 126.777 74.5352 127.461 74.5352C128.127 74.5352 128.709 74.6441 129.209 74.8619C129.711 75.0774 130.13 75.3698 130.466 75.7391C130.804 76.106 131.058 76.5191 131.226 76.9784C131.396 77.4377 131.481 77.9112 131.481 78.3989C131.481 78.7422 131.465 79.0902 131.432 79.4429C131.398 79.7957 131.329 80.12 131.222 80.4159C131.116 80.7095 130.951 80.9462 130.729 81.1262C130.508 81.3061 130.21 81.396 129.834 81.396C129.668 81.396 129.486 81.37 129.287 81.3179C129.088 81.2658 128.912 81.1794 128.758 81.0587C128.604 80.9379 128.513 80.7758 128.484 80.5722H128.442C128.385 80.7095 128.297 80.8397 128.179 80.9628C128.063 81.0859 127.91 81.1842 127.721 81.2575C127.534 81.3309 127.305 81.3629 127.035 81.3534C126.728 81.3416 126.456 81.2729 126.222 81.1475C125.988 81.0196 125.791 80.8468 125.633 80.629C125.476 80.4088 125.358 80.1543 125.278 79.8655C125.199 79.5743 125.16 79.2606 125.16 78.9244C125.16 78.6048 125.208 78.3125 125.302 78.0473C125.397 77.7822 125.528 77.5502 125.697 77.3513C125.867 77.1524 126.066 76.9938 126.293 76.8754C126.523 76.7547 126.77 76.6801 127.035 76.6517C127.272 76.628 127.488 76.6387 127.682 76.6837C127.876 76.7263 128.036 76.7914 128.161 76.879C128.287 76.9642 128.366 77.0589 128.399 77.1631H128.442V76.7654H129.194V79.9756C129.194 80.1744 129.25 80.3496 129.361 80.5012C129.473 80.6527 129.635 80.7284 129.848 80.7284C130.089 80.7284 130.274 80.6456 130.402 80.4798C130.532 80.3141 130.621 80.0584 130.668 79.7128C130.718 79.3672 130.743 78.9244 130.743 78.3847C130.743 78.0674 130.699 77.7549 130.611 77.4472C130.526 77.137 130.396 76.847 130.221 76.5771C130.048 76.3073 129.829 76.0693 129.564 75.8634C129.299 75.6574 128.987 75.4964 128.63 75.3804C128.275 75.262 127.871 75.2029 127.419 75.2029C126.863 75.2029 126.364 75.2893 125.924 75.4621C125.486 75.6325 125.113 75.8823 124.805 76.2114C124.5 76.5381 124.267 76.9358 124.106 77.4046C123.947 77.8709 123.868 78.4012 123.868 78.9955C123.868 79.5992 123.947 80.1354 124.106 80.6041C124.267 81.0729 124.503 81.4682 124.816 81.7902C125.131 82.1122 125.52 82.356 125.984 82.5218C126.448 82.6898 126.983 82.7739 127.589 82.7739C127.85 82.7739 128.107 82.749 128.36 82.6993C128.613 82.6496 128.837 82.5951 129.031 82.536C129.225 82.4768 129.365 82.433 129.45 82.4046L129.649 83.058C129.502 83.1195 129.31 83.1811 129.074 83.2426C128.839 83.3042 128.588 83.3551 128.321 83.3953C128.056 83.4356 127.802 83.4557 127.561 83.4557ZM127.149 80.629C127.466 80.629 127.723 80.5651 127.92 80.4372C128.116 80.3094 128.259 80.1164 128.349 79.8584C128.439 79.6003 128.484 79.2748 128.484 78.8818C128.484 78.4841 128.434 78.174 128.335 77.9514C128.236 77.7289 128.089 77.5727 127.895 77.4827C127.701 77.3927 127.461 77.3477 127.177 77.3477C126.907 77.3477 126.677 77.4188 126.485 77.5608C126.296 77.7005 126.15 77.8875 126.048 78.1219C125.949 78.3539 125.899 78.6072 125.899 78.8818C125.899 79.1849 125.939 79.4701 126.02 79.7377C126.1 80.0028 126.232 80.2182 126.414 80.384C126.596 80.5473 126.841 80.629 127.149 80.629ZM132.736 83.5835V76.0835H133.545V76.95H133.645C133.706 76.8553 133.792 76.7346 133.901 76.5878C134.012 76.4387 134.17 76.3061 134.376 76.1901C134.585 76.0717 134.866 76.0125 135.222 76.0125C135.681 76.0125 136.086 76.1273 136.436 76.357C136.786 76.5866 137.06 76.9121 137.256 77.3335C137.453 77.7549 137.551 78.2521 137.551 78.825C137.551 79.4027 137.453 79.9034 137.256 80.3271C137.06 80.7485 136.788 81.0753 136.44 81.3073C136.092 81.5369 135.69 81.6517 135.236 81.6517C134.885 81.6517 134.605 81.5937 134.394 81.4777C134.183 81.3593 134.021 81.2256 133.908 81.0764C133.794 80.9249 133.706 80.7994 133.645 80.7H133.574V83.5835H132.736ZM133.56 78.8108C133.56 79.2227 133.62 79.5861 133.741 79.901C133.862 80.2135 134.038 80.4585 134.27 80.6361C134.502 80.8113 134.786 80.8989 135.122 80.8989C135.473 80.8989 135.765 80.8066 135.999 80.6219C136.236 80.4349 136.414 80.1839 136.532 79.8691C136.653 79.5518 136.713 79.1991 136.713 78.8108C136.713 78.4273 136.654 78.0816 136.536 77.7739C136.42 77.4637 136.243 77.2187 136.006 77.0388C135.772 76.8565 135.477 76.7654 135.122 76.7654C134.781 76.7654 134.495 76.8518 134.263 77.0246C134.031 77.195 133.856 77.4342 133.737 77.7419C133.619 78.0473 133.56 78.4036 133.56 78.8108ZM138.83 81.5381V76.0835H139.639V76.9074H139.696C139.795 76.6375 139.975 76.4185 140.236 76.2504C140.496 76.0824 140.79 75.9983 141.116 75.9983C141.178 75.9983 141.255 75.9995 141.347 76.0019C141.44 76.0042 141.509 76.0078 141.557 76.0125V76.8648C141.528 76.8577 141.463 76.847 141.362 76.8328C141.262 76.8163 141.157 76.808 141.045 76.808C140.78 76.808 140.544 76.8636 140.335 76.9749C140.129 77.0838 139.966 77.2353 139.845 77.4294C139.727 77.6212 139.668 77.8402 139.668 78.0864V81.5381H138.83ZM144.6 81.6517C144.108 81.6517 143.676 81.5345 143.304 81.3002C142.935 81.0658 142.646 80.7379 142.438 80.3165C142.232 79.8951 142.129 79.4027 142.129 78.8392C142.129 78.271 142.232 77.7751 142.438 77.3513C142.646 76.9275 142.935 76.5985 143.304 76.3641C143.676 76.1297 144.108 76.0125 144.6 76.0125C145.093 76.0125 145.523 76.1297 145.893 76.3641C146.264 76.5985 146.553 76.9275 146.759 77.3513C146.968 77.7751 147.072 78.271 147.072 78.8392C147.072 79.4027 146.968 79.8951 146.759 80.3165C146.553 80.7379 146.264 81.0658 145.893 81.3002C145.523 81.5345 145.093 81.6517 144.6 81.6517ZM144.6 80.8989C144.974 80.8989 145.282 80.803 145.523 80.6112C145.765 80.4195 145.944 80.1673 146.06 79.8548C146.176 79.5423 146.234 79.2038 146.234 78.8392C146.234 78.4746 146.176 78.1349 146.06 77.82C145.944 77.5052 145.765 77.2507 145.523 77.0566C145.282 76.8624 144.974 76.7654 144.6 76.7654C144.226 76.7654 143.918 76.8624 143.677 77.0566C143.435 77.2507 143.257 77.5052 143.141 77.82C143.025 78.1349 142.967 78.4746 142.967 78.8392C142.967 79.2038 143.025 79.5423 143.141 79.8548C143.257 80.1673 143.435 80.4195 143.677 80.6112C143.918 80.803 144.226 80.8989 144.6 80.8989ZM151.476 78.0296V78.8108H148.294V78.0296H151.476ZM155.167 81.6517C154.655 81.6517 154.215 81.531 153.846 81.2895C153.476 81.048 153.192 80.7154 152.993 80.2916C152.794 79.8679 152.695 79.3837 152.695 78.8392C152.695 78.2852 152.797 77.7964 153 77.3726C153.206 76.9465 153.493 76.6138 153.86 76.3747C154.229 76.1333 154.66 76.0125 155.152 76.0125C155.536 76.0125 155.882 76.0835 156.189 76.2256C156.497 76.3676 156.749 76.5665 156.946 76.8222C157.142 77.0779 157.264 77.3762 157.311 77.7171H156.473C156.409 77.4685 156.267 77.2483 156.047 77.0566C155.829 76.8624 155.536 76.7654 155.167 76.7654C154.84 76.7654 154.553 76.8506 154.307 77.021C154.063 77.1891 153.873 77.4271 153.735 77.7348C153.6 78.0402 153.533 78.3989 153.533 78.8108C153.533 79.2322 153.599 79.5992 153.732 79.9117C153.867 80.2242 154.056 80.4668 154.3 80.6396C154.546 80.8125 154.835 80.8989 155.167 80.8989C155.384 80.8989 155.582 80.861 155.76 80.7852C155.937 80.7095 156.087 80.6006 156.211 80.4585C156.334 80.3165 156.421 80.146 156.473 79.9472H157.311C157.264 80.2691 157.147 80.5592 156.96 80.8172C156.775 81.0729 156.53 81.2765 156.225 81.428C155.922 81.5771 155.569 81.6517 155.167 81.6517ZM162.4 77.3051L161.647 77.5182C161.6 77.3927 161.53 77.2708 161.438 77.1524C161.348 77.0317 161.225 76.9323 161.069 76.8541C160.912 76.776 160.712 76.7369 160.468 76.7369C160.135 76.7369 159.856 76.8139 159.634 76.9678C159.414 77.1193 159.304 77.3122 159.304 77.5466C159.304 77.7549 159.379 77.9195 159.531 78.0402C159.682 78.161 159.919 78.2616 160.241 78.3421L161.051 78.5409C161.538 78.6593 161.902 78.8404 162.141 79.0843C162.38 79.3257 162.5 79.637 162.5 80.0182C162.5 80.3307 162.41 80.6101 162.23 80.8563C162.052 81.1025 161.804 81.2966 161.484 81.4387C161.164 81.5807 160.793 81.6517 160.369 81.6517C159.813 81.6517 159.352 81.531 158.988 81.2895C158.623 81.048 158.392 80.6953 158.295 80.2313L159.091 80.0324C159.166 80.326 159.31 80.5461 159.52 80.6929C159.733 80.8397 160.011 80.9131 160.355 80.9131C160.745 80.9131 161.056 80.8302 161.285 80.6645C161.517 80.4964 161.633 80.2952 161.633 80.0608C161.633 79.8714 161.567 79.7128 161.434 79.585C161.302 79.4548 161.098 79.3577 160.824 79.2938L159.914 79.0807C159.415 78.9623 159.048 78.7789 158.814 78.5303C158.582 78.2793 158.466 77.9656 158.466 77.5892C158.466 77.2815 158.552 77.0092 158.725 76.7725C158.9 76.5357 159.138 76.3499 159.439 76.2149C159.742 76.08 160.085 76.0125 160.468 76.0125C161.008 76.0125 161.432 76.1309 161.74 76.3676C162.05 76.6044 162.27 76.9169 162.4 77.3051ZM164.372 81.5949C164.197 81.5949 164.046 81.5322 163.921 81.4067C163.796 81.2812 163.733 81.1309 163.733 80.9557C163.733 80.7805 163.796 80.6302 163.921 80.5047C164.046 80.3792 164.197 80.3165 164.372 80.3165C164.547 80.3165 164.698 80.3792 164.823 80.5047C164.948 80.6302 165.011 80.7805 165.011 80.9557C165.011 81.0717 164.982 81.1782 164.922 81.2753C164.866 81.3724 164.789 81.4505 164.692 81.5097C164.597 81.5665 164.49 81.5949 164.372 81.5949ZM166.515 81.5381V76.0835H167.353V81.5381H166.515ZM166.941 75.1744C166.778 75.1744 166.637 75.1188 166.519 75.0075C166.403 74.8963 166.345 74.7625 166.345 74.6063C166.345 74.45 166.403 74.3163 166.519 74.205C166.637 74.0937 166.778 74.0381 166.941 74.0381C167.105 74.0381 167.244 74.0937 167.36 74.205C167.479 74.3163 167.538 74.45 167.538 74.6063C167.538 74.7625 167.479 74.8963 167.36 75.0075C167.244 75.1188 167.105 75.1744 166.941 75.1744ZM169.726 78.2568V81.5381H168.888V76.0835H169.698V76.9358H169.769C169.897 76.6588 170.091 76.4363 170.351 76.2682C170.612 76.0977 170.948 76.0125 171.36 76.0125C171.729 76.0125 172.052 76.0883 172.329 76.2398C172.606 76.3889 172.822 76.6162 172.975 76.9216C173.129 77.2246 173.206 77.6082 173.206 78.0722V81.5381H172.368V78.129C172.368 77.7005 172.257 77.3667 172.034 77.1276C171.812 76.8861 171.507 76.7654 171.118 76.7654C170.851 76.7654 170.612 76.8234 170.401 76.9394C170.193 77.0554 170.028 77.2246 169.907 77.4472C169.787 77.6697 169.726 77.9396 169.726 78.2568Z" fill="white"/>
<rect x="55.1504" y="12.5991" width="42.8349" height="30.9263" rx="1.94468" fill="#86B441"/>
<path d="M16.2522 29.5777C16.867 29.0201 17.4068 28.5761 17.9016 28.0753C19.5859 26.3767 21.5701 26.4284 23.5643 27.1718C25.5636 27.9152 26.6082 29.5518 26.7681 31.715C26.913 33.7285 26.5834 35.9027 25.3439 37.5238C25.109 37.8284 24.9939 37.9854 24.6815 38.447C24.0758 39.3419 23.3567 39.8317 22.0319 40.5241C20.2655 41.2165 18.6663 40.8635 17.1269 40.3059C16.2472 39.9858 16.2422 39.9858 16.2472 40.9822C16.2572 42.5775 16.2722 44.1779 16.2922 45.7732C16.2922 45.9952 16.3172 46.2224 16.3422 46.4444C16.3971 46.9142 16.6471 47.193 17.1069 47.2859C17.5217 47.3737 17.9465 47.3685 18.3614 47.3479C18.7412 47.3272 18.6863 47.5596 18.6963 47.8022C18.7112 48.0655 18.6363 48.1688 18.3564 48.1584C16.1572 48.0655 13.9581 48.0345 11.759 48.1584C11.4541 48.1739 11.4341 48.019 11.4391 47.7815C11.4441 47.5544 11.3991 47.3272 11.754 47.3479C12.1288 47.3685 12.5087 47.3634 12.8835 47.3324C13.5233 47.2756 13.7132 47.0743 13.7882 46.4237C13.9131 45.386 13.8981 44.338 13.8981 43.2951C13.8981 38.9687 13.9781 34.6372 13.8431 30.3108C13.8381 30.0733 13.8132 29.8358 13.7832 29.5983C13.6982 28.8394 13.5433 28.6793 12.8036 28.6329C12.4987 28.6122 12.1938 28.6329 11.8939 28.6174C11.704 28.6071 11.4441 28.731 11.4341 28.3386C11.4291 28.003 11.4541 27.7862 11.8639 27.75C12.7736 27.6674 13.6632 27.4609 14.5429 27.1976C14.9577 27.0737 15.3676 26.924 15.7774 26.7691C16.2022 26.6091 16.2822 26.6607 16.2772 27.1408C16.2772 27.781 16.2522 28.4264 16.2422 29.0665C16.2422 29.1956 16.2422 29.3298 16.2422 29.5828L16.2522 29.5777ZM24.384 33.491C24.394 33.1193 24.364 32.6753 24.2791 32.2365C23.9642 30.5121 23.0495 29.2834 21.4052 28.7464C19.7658 28.2095 18.3264 28.6484 17.0819 29.841C16.5521 30.3469 16.2672 30.9561 16.2522 31.7357C16.2222 33.2432 16.3022 34.7559 16.2022 36.2531C16.1372 37.2082 16.5171 37.771 17.1968 38.2976C19.396 39.9961 22.4098 39.3146 23.6643 36.8107C24.1741 35.7936 24.394 34.7094 24.379 33.4962L24.384 33.491Z" fill="white"/>
<path d="M53.5482 33.378C53.6346 38.6273 48.6645 41.5932 44.3043 40.3806C42.668 39.9239 41.4382 38.874 40.6963 37.315C39.7205 35.2678 39.5579 33.1051 40.2948 30.9423C41.1994 28.2914 43.5878 26.5854 46.4387 26.4594C48.0293 26.3859 49.564 26.6169 50.9107 27.5618C52.8062 28.8951 53.5533 30.8216 53.5431 33.3728L53.5482 33.378ZM50.8802 34.2494C50.8802 34.0079 50.8955 33.7612 50.8802 33.5197C50.7786 31.9555 50.4737 30.4437 49.5488 29.1523C48.6391 27.8767 47.3839 27.3518 45.8797 27.5513C44.4822 27.735 43.4455 28.5067 42.9932 29.903C42.0633 32.7586 42.4495 35.4882 44.035 37.9921C44.8887 39.3412 46.2354 39.7874 47.7447 39.5459C49.2795 39.2992 50.1535 38.2546 50.5906 36.7796C50.8345 35.9607 50.9056 35.1155 50.8751 34.2599L50.8802 34.2494Z" fill="white"/>
<path d="M32.6421 30.1024C33.1719 29.612 33.5717 29.0182 34.0066 28.4658C34.8712 27.361 35.9308 26.7621 37.3452 27.0616C37.915 27.1803 37.96 27.2526 37.88 27.836C37.7651 28.693 37.7051 29.5552 37.6951 30.4225C37.6951 30.5722 37.7551 30.7839 37.5052 30.7994C37.3103 30.8097 37.0954 30.8717 36.9754 30.6239C36.5756 29.7927 35.9158 29.4003 35.0311 29.5242C34.0465 29.6584 33.3668 30.2367 32.987 31.1814C32.772 31.7132 32.7171 32.2811 32.6871 32.849C32.5771 34.8625 32.5621 36.876 32.7471 38.8894C32.792 39.3747 33.0119 39.6535 33.4718 39.7516C33.9566 39.8549 34.4464 39.9013 34.9362 39.8807C35.2661 39.8652 35.431 39.9117 35.426 40.3247C35.416 40.7429 35.1911 40.6912 34.9412 40.6758C32.972 40.5725 31.0077 40.588 29.0385 40.6293C28.7336 40.6345 28.4337 40.6551 28.1289 40.6758C27.9089 40.6912 27.754 40.6603 27.784 40.3763C27.809 40.1388 27.699 39.8497 28.0989 39.8342C28.5337 39.8187 28.9635 39.7723 29.3934 39.7207C29.9231 39.6587 30.1081 39.4987 30.1431 38.9721C30.348 35.9002 30.443 32.8335 30.1681 29.7617C30.1081 29.1267 29.9431 28.9718 29.3184 28.8995C28.9585 28.8582 28.5937 28.884 28.2338 28.8685C28.0439 28.8582 27.779 28.9769 27.774 28.5897C27.769 28.2542 27.789 28.0322 28.2038 27.996C28.9385 27.9392 29.6633 27.774 30.378 27.5933C30.9577 27.4488 31.5125 27.2371 32.0573 26.9944C32.4572 26.8137 32.5921 26.9067 32.5921 27.3558C32.5921 28.249 32.5871 29.1473 32.5821 30.0405C32.5821 30.0508 32.6021 30.0611 32.6471 30.1024H32.6421Z" fill="white"/>
<path d="M53.7109 18.4648C53.8377 18.4266 53.9134 18.4733 53.9485 18.5665C54.0048 18.7217 54.0251 18.8915 53.878 19.0194C53.6486 19.221 53.3557 19.3753 53.1956 19.6177C52.5323 20.62 51.5868 21.3522 50.8917 22.3309C50.5526 22.8039 50.2413 23.3452 49.712 23.6825C49.5215 23.7999 49.3795 24.0351 49.2744 24.2746C48.9371 25.045 47.8605 25.2081 47.3822 24.5493C47.1333 24.2078 47.2909 23.7821 47.5753 23.5776C47.978 23.2847 48.2669 22.9155 48.5359 22.5156C48.6045 22.4108 48.6847 22.2928 48.7926 22.243C49.8056 21.7731 50.5299 20.8942 51.4646 20.3208C52.2026 19.8651 52.668 19.0818 53.4198 18.657C53.5271 18.5945 53.6277 18.5197 53.7109 18.4648Z" fill="#F49B21"/>
<path d="M88.2424 14.9074C90.5134 14.8859 92.4854 15.4012 94.4066 16.26C94.7501 16.4103 94.8391 16.5749 94.7501 16.9828C94.4765 18.2781 94.362 19.595 94.4002 20.9189C94.4193 21.6274 94.0249 21.4414 93.675 21.4843C93.2742 21.5344 93.1725 21.3483 93.1915 20.9261C93.217 20.2462 93.2233 19.5663 93.1088 18.8865C93.0198 18.3569 92.8099 17.9561 92.3837 17.7128C90.2081 16.4675 87.9498 16.0811 85.6088 17.0114C83.4587 17.8702 82.32 20.2391 82.8289 22.7224C83.1533 24.3183 84.063 25.3202 85.4816 25.7139C86.7729 26.0645 88.0897 26.1934 89.4129 26.3436C90.4943 26.4653 91.5694 26.6013 92.6254 26.9019C94.9982 27.5674 96.245 29.6285 96.2195 32.5198C96.1814 36.4702 93.306 39.4975 90.507 40.4994C87.3518 41.6301 84.2157 41.3439 81.1241 40.206C79.8836 39.748 80.1253 40.0843 80.2398 38.6029C80.3289 37.3863 80.4307 36.1697 80.3734 34.9459C80.348 34.4234 80.4943 34.2946 80.9523 34.2875C81.4358 34.2875 81.6139 34.4163 81.5694 34.9817C81.5312 35.4969 81.5884 36.0194 81.5757 36.5347C81.563 37.2217 81.8302 37.7083 82.32 38.0948C83.8085 39.2613 85.4879 39.5762 87.25 39.569C88.3633 39.569 89.4511 39.3973 90.4816 38.8892C92.5999 37.8443 93.7386 35.4254 93.2933 32.9134C92.9816 31.1314 91.8366 30.0579 89.9218 29.7001C88.3251 29.3995 86.6966 29.3637 85.0999 29.0775C83.8404 28.8556 82.5872 28.6266 81.5757 27.639C80.1953 26.2792 79.8454 24.4901 79.8836 22.5363C79.9599 18.6789 82.5554 15.6517 86.4485 15.0648C87.1101 14.9646 87.7653 14.9074 88.236 14.936L88.2424 14.9074Z" fill="#FEFEFE"/>
<path d="M70.6554 15.3766C72.8688 15.287 74.987 15.9699 77.1172 16.5149C78.0156 16.7425 78.0216 16.7563 77.7598 17.7704C77.4444 19.0052 77.3611 20.2745 77.2838 21.5438C77.26 21.9301 77.141 22.0336 76.8494 21.9853C76.5817 21.9439 76.183 22.1785 76.1711 21.5645C76.1592 20.8471 76.1354 20.1296 76.1176 19.4122C76.1116 19.1225 76.064 18.8879 75.8141 18.7224C72.5059 16.5287 69.0906 16.1838 65.6633 18.2119C63.1465 19.7019 61.9029 22.3233 61.5459 25.5173C61.2544 28.1456 61.54 30.6911 62.605 33.0641C64.3841 37.01 68.2695 39.3279 72.137 38.8036C73.2972 38.6449 74.4634 38.5069 75.5761 38.0654C76.2782 37.7895 76.9268 37.3687 77.5396 36.8858C77.6765 36.7823 77.7895 36.6099 77.9859 36.803C78.1703 36.9893 78.1168 37.148 78.0632 37.3756C77.8371 38.3897 77.26 38.9277 76.427 39.3002C72.3452 41.1628 68.2516 41.3629 64.2472 39.1692C60.3024 37.0031 58.3091 33.2297 58.2436 28.1939C58.1603 21.7577 61.6649 16.915 67.1508 15.7423C68.3052 15.4939 69.4654 15.3422 70.6435 15.3835L70.6554 15.3766Z" fill="#FEFEFE"/>
<path d="M28.5217 48.6025V45.491H29.6885C29.9276 45.491 30.1281 45.5356 30.2902 45.6247C30.4533 45.7139 30.5763 45.8364 30.6594 45.9924C30.7434 46.1474 30.7855 46.3236 30.7855 46.5211C30.7855 46.7207 30.7434 46.8979 30.6594 47.0529C30.5753 47.2078 30.4512 47.3299 30.2871 47.419C30.1231 47.5071 29.921 47.5512 29.681 47.5512H28.9076V47.0878H29.605C29.7448 47.0878 29.8592 47.0635 29.9483 47.0149C30.0375 46.9663 30.1033 46.8994 30.1459 46.8143C30.1894 46.7293 30.2112 46.6315 30.2112 46.5211C30.2112 46.4107 30.1894 46.3135 30.1459 46.2294C30.1033 46.1454 30.037 46.08 29.9468 46.0334C29.8577 45.9858 29.7427 45.962 29.6019 45.962H29.0854V48.6025H28.5217ZM31.2508 48.6025V46.2689H31.784V46.6579H31.8083C31.8509 46.5231 31.9238 46.4193 32.0271 46.3464C32.1314 46.2725 32.2504 46.2355 32.3841 46.2355C32.4145 46.2355 32.4485 46.237 32.4859 46.2401C32.5244 46.2421 32.5563 46.2456 32.5816 46.2507V46.7566C32.5583 46.7485 32.5214 46.7414 32.4707 46.7353C32.4211 46.7282 32.373 46.7247 32.3264 46.7247C32.2261 46.7247 32.136 46.7465 32.056 46.79C31.977 46.8326 31.9147 46.8918 31.8691 46.9678C31.8235 47.0438 31.8007 47.1314 31.8007 47.2306V48.6025H31.2508ZM33.8689 48.6481C33.641 48.6481 33.4435 48.598 33.2763 48.4977C33.1092 48.3974 32.9796 48.2572 32.8874 48.0769C32.7962 47.8966 32.7507 47.6859 32.7507 47.4448C32.7507 47.2038 32.7962 46.9926 32.8874 46.8113C32.9796 46.63 33.1092 46.4892 33.2763 46.3889C33.4435 46.2887 33.641 46.2385 33.8689 46.2385C34.0968 46.2385 34.2943 46.2887 34.4614 46.3889C34.6285 46.4892 34.7576 46.63 34.8488 46.8113C34.941 46.9926 34.9871 47.2038 34.9871 47.4448C34.9871 47.6859 34.941 47.8966 34.8488 48.0769C34.7576 48.2572 34.6285 48.3974 34.4614 48.4977C34.2943 48.598 34.0968 48.6481 33.8689 48.6481ZM33.8719 48.2075C33.9955 48.2075 34.0988 48.1736 34.1818 48.1057C34.2649 48.0369 34.3267 47.9447 34.3672 47.8292C34.4087 47.7138 34.4295 47.5851 34.4295 47.4433C34.4295 47.3005 34.4087 47.1714 34.3672 47.0559C34.3267 46.9394 34.2649 46.8468 34.1818 46.7779C34.0988 46.709 33.9955 46.6746 33.8719 46.6746C33.7453 46.6746 33.64 46.709 33.5559 46.7779C33.4728 46.8468 33.4105 46.9394 33.369 47.0559C33.3285 47.1714 33.3082 47.3005 33.3082 47.4433C33.3082 47.5851 33.3285 47.7138 33.369 47.8292C33.4105 47.9447 33.4728 48.0369 33.5559 48.1057C33.64 48.1736 33.7453 48.2075 33.8719 48.2075ZM36.4687 49.5263C36.2712 49.5263 36.1016 49.4994 35.9598 49.4457C35.818 49.3931 35.704 49.3222 35.6179 49.233C35.5318 49.1439 35.4721 49.0452 35.4387 48.9368L35.9339 48.8168C35.9562 48.8623 35.9886 48.9074 36.0312 48.952C36.0737 48.9976 36.1309 49.035 36.2029 49.0644C36.2758 49.0948 36.3674 49.11 36.4778 49.11C36.6338 49.11 36.763 49.072 36.8653 48.996C36.9676 48.9211 37.0187 48.7975 37.0187 48.6253V48.1832H36.9914C36.963 48.2399 36.9215 48.2982 36.8668 48.3579C36.8131 48.4177 36.7417 48.4678 36.6526 48.5083C36.5644 48.5489 36.4535 48.5691 36.3198 48.5691C36.1406 48.5691 35.978 48.5271 35.8322 48.443C35.6873 48.3579 35.5718 48.2313 35.4858 48.0632C35.4007 47.894 35.3581 47.6824 35.3581 47.4281C35.3581 47.1719 35.4007 46.9556 35.4858 46.7794C35.5718 46.6021 35.6878 46.4679 35.8337 46.3768C35.9795 46.2846 36.1421 46.2385 36.3214 46.2385C36.4581 46.2385 36.5705 46.2618 36.6586 46.3084C36.7478 46.354 36.8187 46.4092 36.8713 46.474C36.924 46.5378 36.964 46.5981 36.9914 46.6548H37.0218V46.2689H37.5641V48.6405C37.5641 48.8401 37.5165 49.0051 37.4213 49.1358C37.3261 49.2665 37.196 49.3642 37.0309 49.429C36.8658 49.4939 36.6784 49.5263 36.4687 49.5263ZM36.4733 48.1376C36.5898 48.1376 36.689 48.1093 36.7711 48.0526C36.8531 47.9958 36.9154 47.9143 36.9579 47.808C37.0005 47.7016 37.0218 47.574 37.0218 47.4251C37.0218 47.2782 37.0005 47.1496 36.9579 47.0392C36.9164 46.9288 36.8546 46.8432 36.7726 46.7824C36.6916 46.7207 36.5918 46.6898 36.4733 46.6898C36.3507 46.6898 36.2484 46.7217 36.1664 46.7855C36.0844 46.8493 36.0226 46.9369 35.981 47.0483C35.9395 47.1587 35.9188 47.2843 35.9188 47.4251C35.9188 47.5679 35.9395 47.693 35.981 47.8004C36.0236 47.9067 36.0859 47.9898 36.1679 48.0495C36.251 48.1083 36.3528 48.1376 36.4733 48.1376ZM38.1278 48.6025V46.2689H38.6611V46.6579H38.6854C38.7279 46.5231 38.8008 46.4193 38.9041 46.3464C39.0085 46.2725 39.1275 46.2355 39.2612 46.2355C39.2916 46.2355 39.3255 46.237 39.363 46.2401C39.4015 46.2421 39.4334 46.2456 39.4587 46.2507V46.7566C39.4354 46.7485 39.3984 46.7414 39.3478 46.7353C39.2981 46.7282 39.25 46.7247 39.2034 46.7247C39.1032 46.7247 39.013 46.7465 38.933 46.79C38.854 46.8326 38.7917 46.8918 38.7461 46.9678C38.7006 47.0438 38.6778 47.1314 38.6778 47.2306V48.6025H38.1278ZM40.7611 48.6481C40.5271 48.6481 40.3251 48.5995 40.1549 48.5023C39.9857 48.404 39.8556 48.2653 39.7644 48.086C39.6733 47.9057 39.6277 47.6935 39.6277 47.4494C39.6277 47.2094 39.6733 46.9987 39.7644 46.8174C39.8566 46.6351 39.9852 46.4933 40.1503 46.392C40.3154 46.2897 40.5094 46.2385 40.7322 46.2385C40.876 46.2385 41.0118 46.2618 41.1394 46.3084C41.268 46.354 41.3815 46.4249 41.4797 46.5211C41.579 46.6173 41.657 46.7399 41.7137 46.8888C41.7704 47.0367 41.7988 47.2129 41.7988 47.4175V47.5861H39.886V47.2154H41.2716C41.2706 47.1101 41.2478 47.0164 41.2032 46.9344C41.1586 46.8513 41.0963 46.786 41.0163 46.7384C40.9373 46.6908 40.8452 46.667 40.7398 46.667C40.6274 46.667 40.5286 46.6943 40.4436 46.749C40.3585 46.8027 40.2921 46.8736 40.2445 46.9617C40.1979 47.0488 40.1741 47.1445 40.1731 47.2489V47.5725C40.1731 47.7082 40.1979 47.8247 40.2476 47.9219C40.2972 48.0181 40.3666 48.0921 40.4557 48.1437C40.5448 48.1944 40.6492 48.2197 40.7687 48.2197C40.8487 48.2197 40.9211 48.2085 40.9859 48.1863C41.0508 48.163 41.107 48.129 41.1546 48.0845C41.2022 48.0399 41.2381 47.9847 41.2625 47.9189L41.776 47.9766C41.7436 48.1123 41.6818 48.2308 41.5906 48.3321C41.5005 48.4324 41.385 48.5104 41.2442 48.5661C41.1034 48.6208 40.9424 48.6481 40.7611 48.6481ZM44.1085 46.8857L43.6071 46.9404C43.5929 46.8898 43.5681 46.8422 43.5326 46.7976C43.4982 46.7531 43.4516 46.7171 43.3929 46.6898C43.3341 46.6624 43.2622 46.6487 43.1771 46.6487C43.0627 46.6487 42.9665 46.6736 42.8885 46.7232C42.8115 46.7728 42.7735 46.8371 42.7745 46.9161C42.7735 46.984 42.7983 47.0392 42.849 47.0817C42.9006 47.1243 42.9857 47.1592 43.1042 47.1866L43.5023 47.2716C43.7231 47.3193 43.8871 47.3947 43.9945 47.498C44.1029 47.6013 44.1576 47.7365 44.1586 47.9037C44.1576 48.0505 44.1145 48.1802 44.0294 48.2926C43.9454 48.404 43.8284 48.4911 43.6785 48.5539C43.5286 48.6167 43.3564 48.6481 43.1619 48.6481C42.8763 48.6481 42.6464 48.5884 42.4722 48.4688C42.298 48.3483 42.1942 48.1807 42.1607 47.966L42.697 47.9143C42.7213 48.0196 42.773 48.0991 42.852 48.1528C42.931 48.2065 43.0338 48.2334 43.1604 48.2334C43.2911 48.2334 43.3959 48.2065 43.4749 48.1528C43.5549 48.0991 43.5949 48.0328 43.5949 47.9538C43.5949 47.887 43.5691 47.8318 43.5174 47.7882C43.4668 47.7447 43.3878 47.7112 43.2804 47.6879L42.8824 47.6044C42.6585 47.5578 42.4929 47.4793 42.3856 47.3689C42.2782 47.2575 42.225 47.1167 42.2261 46.9465C42.225 46.8027 42.264 46.6781 42.343 46.5728C42.4231 46.4664 42.534 46.3844 42.6758 46.3267C42.8186 46.2679 42.9832 46.2385 43.1695 46.2385C43.443 46.2385 43.6582 46.2968 43.8152 46.4133C43.9732 46.5297 44.071 46.6872 44.1085 46.8857ZM46.4565 46.8857L45.9551 46.9404C45.941 46.8898 45.9161 46.8422 45.8807 46.7976C45.8463 46.7531 45.7997 46.7171 45.7409 46.6898C45.6822 46.6624 45.6103 46.6487 45.5252 46.6487C45.4107 46.6487 45.3145 46.6736 45.2365 46.7232C45.1595 46.7728 45.1216 46.8371 45.1226 46.9161C45.1216 46.984 45.1464 47.0392 45.197 47.0817C45.2487 47.1243 45.3338 47.1592 45.4523 47.1866L45.8503 47.2716C46.0711 47.3193 46.2352 47.3947 46.3426 47.498C46.4509 47.6013 46.5056 47.7365 46.5066 47.9037C46.5056 48.0505 46.4626 48.1802 46.3775 48.2926C46.2934 48.404 46.1764 48.4911 46.0265 48.5539C45.8766 48.6167 45.7045 48.6481 45.51 48.6481C45.2244 48.6481 44.9944 48.5884 44.8202 48.4688C44.646 48.3483 44.5422 48.1807 44.5088 47.966L45.0451 47.9143C45.0694 48.0196 45.1211 48.0991 45.2001 48.1528C45.2791 48.2065 45.3819 48.2334 45.5085 48.2334C45.6391 48.2334 45.744 48.2065 45.823 48.1528C45.903 48.0991 45.943 48.0328 45.943 47.9538C45.943 47.887 45.9172 47.8318 45.8655 47.7882C45.8149 47.7447 45.7359 47.7112 45.6285 47.6879L45.2304 47.6044C45.0066 47.5578 44.841 47.4793 44.7336 47.3689C44.6263 47.2575 44.5731 47.1167 44.5741 46.9465C44.5731 46.8027 44.6121 46.6781 44.6911 46.5728C44.7711 46.4664 44.882 46.3844 45.0238 46.3267C45.1666 46.2679 45.3312 46.2385 45.5176 46.2385C45.7911 46.2385 46.0063 46.2968 46.1633 46.4133C46.3213 46.5297 46.419 46.6872 46.4565 46.8857ZM46.9601 48.6025V46.2689H47.5101V48.6025H46.9601ZM47.2367 45.9377C47.1495 45.9377 47.0746 45.9088 47.0118 45.8511C46.949 45.7924 46.9176 45.722 46.9176 45.6399C46.9176 45.5569 46.949 45.4865 47.0118 45.4288C47.0746 45.37 47.1495 45.3406 47.2367 45.3406C47.3248 45.3406 47.3997 45.37 47.4615 45.4288C47.5243 45.4865 47.5557 45.5569 47.5557 45.6399C47.5557 45.722 47.5243 45.7924 47.4615 45.8511C47.3997 45.9088 47.3248 45.9377 47.2367 45.9377ZM50.1601 46.2689L49.3291 48.6025H48.7214L47.8903 46.2689H48.4768L49.0131 48.0024H49.0374L49.5752 46.2689H50.1601ZM51.4944 48.6481C51.2605 48.6481 51.0584 48.5995 50.8883 48.5023C50.7191 48.404 50.589 48.2653 50.4978 48.086C50.4066 47.9057 50.3611 47.6935 50.3611 47.4494C50.3611 47.2094 50.4066 46.9987 50.4978 46.8174C50.59 46.6351 50.7186 46.4933 50.8837 46.392C51.0488 46.2897 51.2428 46.2385 51.4656 46.2385C51.6094 46.2385 51.7451 46.2618 51.8727 46.3084C52.0014 46.354 52.1148 46.4249 52.2131 46.5211C52.3123 46.6173 52.3903 46.7399 52.447 46.8888C52.5038 47.0367 52.5321 47.2129 52.5321 47.4175V47.5861H50.6193V47.2154H52.0049C52.0039 47.1101 51.9811 47.0164 51.9366 46.9344C51.892 46.8513 51.8297 46.786 51.7497 46.7384C51.6707 46.6908 51.5785 46.667 51.4732 46.667C51.3607 46.667 51.262 46.6943 51.1769 46.749C51.0918 46.8027 51.0255 46.8736 50.9779 46.9617C50.9313 47.0488 50.9075 47.1445 50.9065 47.2489V47.5725C50.9065 47.7082 50.9313 47.8247 50.9809 47.9219C51.0306 48.0181 51.0999 48.0921 51.1891 48.1437C51.2782 48.1944 51.3825 48.2197 51.502 48.2197C51.5821 48.2197 51.6545 48.2085 51.7193 48.1863C51.7841 48.163 51.8403 48.129 51.8879 48.0845C51.9355 48.0399 51.9715 47.9847 51.9958 47.9189L52.5093 47.9766C52.4769 48.1123 52.4151 48.2308 52.324 48.3321C52.2338 48.4324 52.1184 48.5104 51.9776 48.5661C51.8368 48.6208 51.6757 48.6481 51.4944 48.6481Z" fill="white"/>
<rect x="54.1875" y="47.6304" width="0.972341" height="0.972341" fill="#027DC3"/>
<path d="M59.103 46.5409H58.5348C58.5186 46.4477 58.4887 46.3651 58.4452 46.2932C58.4016 46.2203 58.3474 46.1585 58.2826 46.1079C58.2178 46.0572 58.1438 46.0193 58.0608 45.9939C57.9787 45.9676 57.8901 45.9544 57.7949 45.9544C57.6258 45.9544 57.4759 45.997 57.3452 46.082C57.2145 46.1661 57.1122 46.2897 57.0383 46.4528C56.9644 46.6148 56.9274 46.8128 56.9274 47.0468C56.9274 47.2848 56.9644 47.4854 57.0383 47.6484C57.1133 47.8105 57.2156 47.933 57.3452 48.0161C57.4759 48.0981 57.6253 48.1392 57.7934 48.1392C57.8866 48.1392 57.9737 48.127 58.0547 48.1027C58.1367 48.0774 58.2102 48.0404 58.275 47.9918C58.3408 47.9432 58.396 47.8834 58.4406 47.8125C58.4862 47.7416 58.5176 47.6606 58.5348 47.5694L59.103 47.5725C59.0817 47.7203 59.0357 47.8591 58.9648 47.9887C58.8949 48.1184 58.8032 48.2328 58.6898 48.3321C58.5763 48.4304 58.4436 48.5073 58.2917 48.563C58.1398 48.6177 57.9711 48.6451 57.7858 48.6451C57.5123 48.6451 57.2682 48.5818 57.0535 48.4552C56.8388 48.3286 56.6696 48.1457 56.5461 47.9067C56.4225 47.6677 56.3607 47.381 56.3607 47.0468C56.3607 46.7115 56.423 46.4249 56.5476 46.1869C56.6722 45.9478 56.8418 45.765 57.0565 45.6384C57.2713 45.5118 57.5143 45.4485 57.7858 45.4485C57.959 45.4485 58.12 45.4728 58.2689 45.5214C58.4178 45.57 58.5505 45.6415 58.667 45.7357C58.7835 45.8288 58.8792 45.9433 58.9541 46.079C59.0301 46.2137 59.0797 46.3677 59.103 46.5409ZM60.57 48.6481C60.3421 48.6481 60.1446 48.598 59.9775 48.4977C59.8104 48.3974 59.6807 48.2572 59.5886 48.0769C59.4974 47.8966 59.4518 47.6859 59.4518 47.4448C59.4518 47.2038 59.4974 46.9926 59.5886 46.8113C59.6807 46.63 59.8104 46.4892 59.9775 46.3889C60.1446 46.2887 60.3421 46.2385 60.57 46.2385C60.7979 46.2385 60.9954 46.2887 61.1625 46.3889C61.3297 46.4892 61.4588 46.63 61.55 46.8113C61.6421 46.9926 61.6882 47.2038 61.6882 47.4448C61.6882 47.6859 61.6421 47.8966 61.55 48.0769C61.4588 48.2572 61.3297 48.3974 61.1625 48.4977C60.9954 48.598 60.7979 48.6481 60.57 48.6481ZM60.5731 48.2075C60.6966 48.2075 60.7999 48.1736 60.883 48.1057C60.966 48.0369 61.0278 47.9447 61.0683 47.8292C61.1099 47.7138 61.1306 47.5851 61.1306 47.4433C61.1306 47.3005 61.1099 47.1714 61.0683 47.0559C61.0278 46.9394 60.966 46.8468 60.883 46.7779C60.7999 46.709 60.6966 46.6746 60.5731 46.6746C60.4464 46.6746 60.3411 46.709 60.257 46.7779C60.174 46.8468 60.1117 46.9394 60.0702 47.0559C60.0297 47.1714 60.0094 47.3005 60.0094 47.4433C60.0094 47.5851 60.0297 47.7138 60.0702 47.8292C60.1117 47.9447 60.174 48.0369 60.257 48.1057C60.3411 48.1736 60.4464 48.2075 60.5731 48.2075ZM62.1122 48.6025V46.2689H62.6455V46.6579H62.6698C62.7123 46.5231 62.7853 46.4193 62.8886 46.3464C62.9929 46.2725 63.1119 46.2355 63.2456 46.2355C63.276 46.2355 63.3099 46.237 63.3474 46.2401C63.3859 46.2421 63.4178 46.2456 63.4431 46.2507V46.7566C63.4198 46.7485 63.3829 46.7414 63.3322 46.7353C63.2826 46.7282 63.2345 46.7247 63.1879 46.7247C63.0876 46.7247 62.9975 46.7465 62.9174 46.79C62.8384 46.8326 62.7762 46.8918 62.7306 46.9678C62.685 47.0438 62.6622 47.1314 62.6622 47.2306V48.6025H62.1122ZM63.7657 49.4776V46.2689H64.3066V46.6548H64.3385C64.3669 46.5981 64.4069 46.5378 64.4585 46.474C64.5102 46.4092 64.5801 46.354 64.6682 46.3084C64.7563 46.2618 64.8687 46.2385 65.0055 46.2385C65.1857 46.2385 65.3483 46.2846 65.4931 46.3768C65.639 46.4679 65.7545 46.6032 65.8395 46.7824C65.9256 46.9607 65.9687 47.1795 65.9687 47.4388C65.9687 47.695 65.9267 47.9128 65.8426 48.0921C65.7585 48.2713 65.6441 48.4081 65.4992 48.5023C65.3544 48.5965 65.1903 48.6436 65.007 48.6436C64.8733 48.6436 64.7624 48.6213 64.6743 48.5767C64.5861 48.5321 64.5152 48.4785 64.4616 48.4157C64.4089 48.3519 64.3679 48.2916 64.3385 48.2349H64.3157V49.4776H63.7657ZM64.3051 47.4357C64.3051 47.5866 64.3263 47.7188 64.3689 47.8323C64.4124 47.9457 64.4747 48.0343 64.5558 48.0981C64.6378 48.1609 64.7371 48.1923 64.8535 48.1923C64.9751 48.1923 65.0769 48.1599 65.1589 48.0951C65.2409 48.0293 65.3027 47.9396 65.3443 47.8262C65.3868 47.7117 65.4081 47.5816 65.4081 47.4357C65.4081 47.2909 65.3873 47.1623 65.3458 47.0498C65.3043 46.9374 65.2425 46.8493 65.1604 46.7855C65.0784 46.7217 64.9761 46.6898 64.8535 46.6898C64.736 46.6898 64.6363 46.7207 64.5542 46.7824C64.4722 46.8442 64.4099 46.9308 64.3674 47.0422C64.3258 47.1536 64.3051 47.2848 64.3051 47.4357ZM67.4148 48.6481C67.1869 48.6481 66.9894 48.598 66.8223 48.4977C66.6552 48.3974 66.5255 48.2572 66.4333 48.0769C66.3422 47.8966 66.2966 47.6859 66.2966 47.4448C66.2966 47.2038 66.3422 46.9926 66.4333 46.8113C66.5255 46.63 66.6552 46.4892 66.8223 46.3889C66.9894 46.2887 67.1869 46.2385 67.4148 46.2385C67.6427 46.2385 67.8402 46.2887 68.0073 46.3889C68.1744 46.4892 68.3036 46.63 68.3947 46.8113C68.4869 46.9926 68.533 47.2038 68.533 47.4448C68.533 47.6859 68.4869 47.8966 68.3947 48.0769C68.3036 48.2572 68.1744 48.3974 68.0073 48.4977C67.8402 48.598 67.6427 48.6481 67.4148 48.6481ZM67.4178 48.2075C67.5414 48.2075 67.6447 48.1736 67.7278 48.1057C67.8108 48.0369 67.8726 47.9447 67.9131 47.8292C67.9547 47.7138 67.9754 47.5851 67.9754 47.4433C67.9754 47.3005 67.9547 47.1714 67.9131 47.0559C67.8726 46.9394 67.8108 46.8468 67.7278 46.7779C67.6447 46.709 67.5414 46.6746 67.4178 46.6746C67.2912 46.6746 67.1859 46.709 67.1018 46.7779C67.0188 46.8468 66.9565 46.9394 66.915 47.0559C66.8744 47.1714 66.8542 47.3005 66.8542 47.4433C66.8542 47.5851 66.8744 47.7138 66.915 47.8292C66.9565 47.9447 67.0188 48.0369 67.1018 48.1057C67.1859 48.1736 67.2912 48.2075 67.4178 48.2075ZM68.957 48.6025V46.2689H69.4903V46.6579H69.5146C69.5571 46.5231 69.6301 46.4193 69.7334 46.3464C69.8377 46.2725 69.9567 46.2355 70.0904 46.2355C70.1208 46.2355 70.1547 46.237 70.1922 46.2401C70.2307 46.2421 70.2626 46.2456 70.2879 46.2507V46.7566C70.2646 46.7485 70.2276 46.7414 70.177 46.7353C70.1274 46.7282 70.0793 46.7247 70.0327 46.7247C69.9324 46.7247 69.8422 46.7465 69.7622 46.79C69.6832 46.8326 69.6209 46.8918 69.5754 46.9678C69.5298 47.0438 69.507 47.1314 69.507 47.2306V48.6025H68.957ZM71.2402 48.6496C71.0924 48.6496 70.9592 48.6233 70.8407 48.5706C70.7232 48.517 70.63 48.4379 70.5611 48.3336C70.4933 48.2293 70.4593 48.1007 70.4593 47.9477C70.4593 47.8161 70.4836 47.7072 70.5323 47.6211C70.5809 47.535 70.6472 47.4661 70.7313 47.4145C70.8154 47.3628 70.9101 47.3238 71.0154 47.2975C71.1217 47.2701 71.2316 47.2504 71.3451 47.2382C71.4818 47.224 71.5927 47.2114 71.6778 47.2002C71.7629 47.1881 71.8247 47.1699 71.8632 47.1455C71.9027 47.1202 71.9224 47.0812 71.9224 47.0286V47.0194C71.9224 46.905 71.8885 46.8164 71.8206 46.7536C71.7528 46.6908 71.655 46.6594 71.5274 46.6594C71.3927 46.6594 71.2858 46.6887 71.2068 46.7475C71.1288 46.8062 71.0762 46.8756 71.0488 46.9556L70.5353 46.8827C70.5758 46.7409 70.6427 46.6224 70.7358 46.5272C70.829 46.431 70.943 46.3591 71.0777 46.3115C71.2124 46.2628 71.3613 46.2385 71.5244 46.2385C71.6368 46.2385 71.7487 46.2517 71.8601 46.278C71.9715 46.3044 72.0733 46.3479 72.1655 46.4087C72.2577 46.4685 72.3316 46.55 72.3873 46.6533C72.444 46.7566 72.4724 46.8857 72.4724 47.0407V48.6025H71.9437V48.282H71.9254C71.892 48.3468 71.8449 48.4076 71.7842 48.4643C71.7244 48.52 71.6489 48.5651 71.5578 48.5995C71.4676 48.6329 71.3618 48.6496 71.2402 48.6496ZM71.3831 48.2455C71.4935 48.2455 71.5892 48.2237 71.6702 48.1802C71.7512 48.1356 71.8135 48.0769 71.8571 48.0039C71.9016 47.931 71.9239 47.8515 71.9239 47.7654V47.4904C71.9067 47.5046 71.8773 47.5178 71.8358 47.5299C71.7953 47.5421 71.7497 47.5527 71.6991 47.5618C71.6484 47.5709 71.5983 47.579 71.5487 47.5861C71.499 47.5932 71.456 47.5993 71.4195 47.6044C71.3375 47.6155 71.2641 47.6337 71.1992 47.6591C71.1344 47.6844 71.0833 47.7198 71.0458 47.7654C71.0083 47.81 70.9896 47.8677 70.9896 47.9386C70.9896 48.0399 71.0265 48.1164 71.1005 48.168C71.1744 48.2197 71.2686 48.2455 71.3831 48.2455ZM74.1479 46.2689V46.6943H72.8064V46.2689H74.1479ZM73.1376 45.7098H73.6876V47.9006C73.6876 47.9746 73.6987 48.0313 73.721 48.0708C73.7443 48.1093 73.7747 48.1356 73.8122 48.1498C73.8496 48.164 73.8912 48.1711 73.9367 48.1711C73.9712 48.1711 74.0026 48.1685 74.0309 48.1635C74.0603 48.1584 74.0826 48.1538 74.0978 48.1498L74.1905 48.5797C74.1611 48.5899 74.119 48.601 74.0644 48.6132C74.0107 48.6253 73.9448 48.6324 73.8668 48.6344C73.7291 48.6385 73.605 48.6177 73.4946 48.5722C73.3842 48.5256 73.2966 48.4536 73.2318 48.3564C73.168 48.2592 73.1366 48.1376 73.1376 47.9918V45.7098ZM75.5731 48.6481C75.3392 48.6481 75.1371 48.5995 74.9669 48.5023C74.7978 48.404 74.6676 48.2653 74.5765 48.086C74.4853 47.9057 74.4398 47.6935 74.4398 47.4494C74.4398 47.2094 74.4853 46.9987 74.5765 46.8174C74.6687 46.6351 74.7973 46.4933 74.9624 46.392C75.1275 46.2897 75.3214 46.2385 75.5443 46.2385C75.6881 46.2385 75.8238 46.2618 75.9514 46.3084C76.0801 46.354 76.1935 46.4249 76.2918 46.5211C76.391 46.6173 76.469 46.7399 76.5257 46.8888C76.5825 47.0367 76.6108 47.2129 76.6108 47.4175V47.5861H74.698V47.2154H76.0836C76.0826 47.1101 76.0598 47.0164 76.0153 46.9344C75.9707 46.8513 75.9084 46.786 75.8284 46.7384C75.7494 46.6908 75.6572 46.667 75.5519 46.667C75.4394 46.667 75.3407 46.6943 75.2556 46.749C75.1705 46.8027 75.1042 46.8736 75.0566 46.9617C75.01 47.0488 74.9862 47.1445 74.9852 47.2489V47.5725C74.9852 47.7082 75.01 47.8247 75.0596 47.9219C75.1093 48.0181 75.1786 48.0921 75.2678 48.1437C75.3569 48.1944 75.4612 48.2197 75.5807 48.2197C75.6608 48.2197 75.7332 48.2085 75.798 48.1863C75.8628 48.163 75.919 48.129 75.9666 48.0845C76.0142 48.0399 76.0502 47.9847 76.0745 47.9189L76.588 47.9766C76.5556 48.1123 76.4938 48.2308 76.4027 48.3321C76.3125 48.4324 76.1971 48.5104 76.0563 48.5661C75.9155 48.6208 75.7544 48.6481 75.5731 48.6481ZM79.767 46.3464C79.7528 46.2137 79.6931 46.1104 79.5877 46.0365C79.4834 45.9625 79.3477 45.9256 79.1806 45.9256C79.0631 45.9256 78.9623 45.9433 78.8782 45.9787C78.7942 46.0142 78.7299 46.0623 78.6853 46.1231C78.6407 46.1838 78.6179 46.2532 78.6169 46.3312C78.6169 46.396 78.6316 46.4522 78.661 46.4999C78.6914 46.5475 78.7324 46.588 78.784 46.6214C78.8357 46.6538 78.8929 46.6812 78.9557 46.7034C79.0185 46.7257 79.0818 46.7445 79.1456 46.7596L79.4373 46.8326C79.5548 46.8599 79.6678 46.8969 79.7761 46.9435C79.8855 46.9901 79.9833 47.0488 80.0694 47.1197C80.1565 47.1906 80.2253 47.2762 80.276 47.3765C80.3266 47.4767 80.3519 47.5942 80.3519 47.729C80.3519 47.9113 80.3054 48.0718 80.2122 48.2106C80.119 48.3483 79.9843 48.4562 79.808 48.5342C79.6328 48.6111 79.4206 48.6496 79.1715 48.6496C78.9294 48.6496 78.7192 48.6122 78.541 48.5372C78.3637 48.4623 78.2249 48.3529 78.1247 48.209C78.0254 48.0652 77.9717 47.89 77.9636 47.6834H78.5182C78.5263 47.7917 78.5597 47.8819 78.6184 47.9538C78.6772 48.0257 78.7537 48.0794 78.8479 48.1148C78.9431 48.1503 79.0494 48.168 79.1669 48.168C79.2895 48.168 79.3968 48.1498 79.489 48.1133C79.5822 48.0759 79.6551 48.0242 79.7078 47.9584C79.7604 47.8915 79.7873 47.8135 79.7883 47.7244C79.7873 47.6434 79.7635 47.5765 79.7169 47.5238C79.6703 47.4702 79.605 47.4256 79.5209 47.3902C79.4378 47.3537 79.3406 47.3213 79.2292 47.2929L78.8752 47.2018C78.6189 47.1359 78.4164 47.0362 78.2675 46.9025C78.1196 46.7678 78.0457 46.589 78.0457 46.3662C78.0457 46.1828 78.0953 46.0223 78.1946 45.8845C78.2948 45.7468 78.4311 45.6399 78.6032 45.564C78.7754 45.487 78.9704 45.4485 79.1882 45.4485C79.409 45.4485 79.6024 45.487 79.7685 45.564C79.9357 45.6399 80.0668 45.7458 80.162 45.8815C80.2572 46.0162 80.3064 46.1712 80.3094 46.3464H79.767ZM82.2747 47.6211V46.2689H82.8247V48.6025H82.2914V48.1878H82.2671C82.2145 48.3184 82.1279 48.4253 82.0073 48.5083C81.8878 48.5914 81.7404 48.6329 81.5652 48.6329C81.4123 48.6329 81.2771 48.599 81.1596 48.5311C81.0431 48.4623 80.9519 48.3625 80.8861 48.2318C80.8203 48.1002 80.7874 47.9411 80.7874 47.7548V46.2689H81.3373V47.6697C81.3373 47.8176 81.3778 47.9351 81.4589 48.0222C81.5399 48.1093 81.6463 48.1528 81.7779 48.1528C81.859 48.1528 81.9374 48.1331 82.0134 48.0936C82.0894 48.0541 82.1517 47.9953 82.2003 47.9173C82.2499 47.8383 82.2747 47.7396 82.2747 47.6211ZM85.1919 46.8857L84.6905 46.9404C84.6763 46.8898 84.6515 46.8422 84.6161 46.7976C84.5816 46.7531 84.5351 46.7171 84.4763 46.6898C84.4176 46.6624 84.3457 46.6487 84.2606 46.6487C84.1461 46.6487 84.0499 46.6736 83.9719 46.7232C83.8949 46.7728 83.8569 46.8371 83.858 46.9161C83.8569 46.984 83.8818 47.0392 83.9324 47.0817C83.9841 47.1243 84.0691 47.1592 84.1876 47.1866L84.5857 47.2716C84.8065 47.3193 84.9706 47.3947 85.0779 47.498C85.1863 47.6013 85.241 47.7365 85.242 47.9037C85.241 48.0505 85.198 48.1802 85.1129 48.2926C85.0288 48.404 84.9118 48.4911 84.7619 48.5539C84.612 48.6167 84.4398 48.6481 84.2454 48.6481C83.9598 48.6481 83.7298 48.5884 83.5556 48.4688C83.3814 48.3483 83.2776 48.1807 83.2442 47.966L83.7805 47.9143C83.8048 48.0196 83.8564 48.0991 83.9354 48.1528C84.0144 48.2065 84.1173 48.2334 84.2439 48.2334C84.3745 48.2334 84.4793 48.2065 84.5584 48.1528C84.6384 48.0991 84.6784 48.0328 84.6784 47.9538C84.6784 47.887 84.6525 47.8318 84.6009 47.7882C84.5502 47.7447 84.4712 47.7112 84.3639 47.6879L83.9658 47.6044C83.742 47.5578 83.5764 47.4793 83.469 47.3689C83.3617 47.2575 83.3085 47.1167 83.3095 46.9465C83.3085 46.8027 83.3475 46.6781 83.4265 46.5728C83.5065 46.4664 83.6174 46.3844 83.7592 46.3267C83.902 46.2679 84.0666 46.2385 84.253 46.2385C84.5264 46.2385 84.7417 46.2968 84.8987 46.4133C85.0567 46.5297 85.1544 46.6872 85.1919 46.8857ZM86.818 46.2689V46.6943H85.4765V46.2689H86.818ZM85.8077 45.7098H86.3577V47.9006C86.3577 47.9746 86.3688 48.0313 86.3911 48.0708C86.4144 48.1093 86.4448 48.1356 86.4823 48.1498C86.5198 48.164 86.5613 48.1711 86.6069 48.1711C86.6413 48.1711 86.6727 48.1685 86.7011 48.1635C86.7304 48.1584 86.7527 48.1538 86.7679 48.1498L86.8606 48.5797C86.8312 48.5899 86.7892 48.601 86.7345 48.6132C86.6808 48.6253 86.615 48.6324 86.537 48.6344C86.3992 48.6385 86.2752 48.6177 86.1648 48.5722C86.0543 48.5256 85.9667 48.4536 85.9019 48.3564C85.8381 48.2592 85.8067 48.1376 85.8077 47.9918V45.7098ZM87.9067 48.6496C87.7589 48.6496 87.6257 48.6233 87.5072 48.5706C87.3897 48.517 87.2965 48.4379 87.2276 48.3336C87.1598 48.2293 87.1258 48.1007 87.1258 47.9477C87.1258 47.8161 87.1501 47.7072 87.1988 47.6211C87.2474 47.535 87.3137 47.4661 87.3978 47.4145C87.4819 47.3628 87.5766 47.3238 87.6819 47.2975C87.7882 47.2701 87.8981 47.2504 88.0116 47.2382C88.1483 47.224 88.2592 47.2114 88.3443 47.2002C88.4294 47.1881 88.4912 47.1699 88.5297 47.1455C88.5692 47.1202 88.5889 47.0812 88.5889 47.0286V47.0194C88.5889 46.905 88.555 46.8164 88.4871 46.7536C88.4192 46.6908 88.3215 46.6594 88.1939 46.6594C88.0592 46.6594 87.9523 46.6887 87.8733 46.7475C87.7953 46.8062 87.7427 46.8756 87.7153 46.9556L87.2018 46.8827C87.2423 46.7409 87.3092 46.6224 87.4023 46.5272C87.4955 46.431 87.6095 46.3591 87.7442 46.3115C87.8789 46.2628 88.0278 46.2385 88.1909 46.2385C88.3033 46.2385 88.4152 46.2517 88.5266 46.278C88.638 46.3044 88.7398 46.3479 88.832 46.4087C88.9242 46.4685 88.9981 46.55 89.0538 46.6533C89.1105 46.7566 89.1389 46.8857 89.1389 47.0407V48.6025H88.6102V48.282H88.5919C88.5585 48.3468 88.5114 48.4076 88.4506 48.4643C88.3909 48.52 88.3154 48.5651 88.2243 48.5995C88.1341 48.6329 88.0283 48.6496 87.9067 48.6496ZM88.0496 48.2455C88.16 48.2455 88.2557 48.2237 88.3367 48.1802C88.4177 48.1356 88.48 48.0769 88.5236 48.0039C88.5681 47.931 88.5904 47.8515 88.5904 47.7654V47.4904C88.5732 47.5046 88.5438 47.5178 88.5023 47.5299C88.4618 47.5421 88.4162 47.5527 88.3656 47.5618C88.3149 47.5709 88.2648 47.579 88.2152 47.5861C88.1655 47.5932 88.1225 47.5993 88.086 47.6044C88.004 47.6155 87.9305 47.6337 87.8657 47.6591C87.8009 47.6844 87.7498 47.7198 87.7123 47.7654C87.6748 47.81 87.6561 47.8677 87.6561 47.9386C87.6561 48.0399 87.693 48.1164 87.767 48.168C87.8409 48.2197 87.9351 48.2455 88.0496 48.2455ZM89.6491 48.6025V46.2689H90.1991V48.6025H89.6491ZM89.9256 45.9377C89.8385 45.9377 89.7636 45.9088 89.7008 45.8511C89.638 45.7924 89.6066 45.722 89.6066 45.6399C89.6066 45.5569 89.638 45.4865 89.7008 45.4288C89.7636 45.37 89.8385 45.3406 89.9256 45.3406C90.0138 45.3406 90.0887 45.37 90.1505 45.4288C90.2133 45.4865 90.2447 45.5569 90.2447 45.6399C90.2447 45.722 90.2133 45.7924 90.1505 45.8511C90.0887 45.9088 90.0138 45.9377 89.9256 45.9377ZM91.2719 47.2352V48.6025H90.7219V46.2689H91.2475V46.6655H91.2749C91.3286 46.5348 91.4142 46.431 91.5317 46.354C91.6502 46.277 91.7965 46.2385 91.9707 46.2385C92.1318 46.2385 92.272 46.273 92.3916 46.3418C92.5121 46.4107 92.6053 46.5105 92.6711 46.6411C92.738 46.7718 92.7709 46.9303 92.7699 47.1167V48.6025H92.2199V47.2018C92.2199 47.0458 92.1794 46.9237 92.0983 46.8356C92.0183 46.7475 91.9074 46.7034 91.7656 46.7034C91.6694 46.7034 91.5838 46.7247 91.5089 46.7672C91.4349 46.8088 91.3767 46.869 91.3341 46.948C91.2926 47.027 91.2719 47.1228 91.2719 47.2352ZM93.9577 48.6496C93.8098 48.6496 93.6766 48.6233 93.5581 48.5706C93.4406 48.517 93.3475 48.4379 93.2786 48.3336C93.2107 48.2293 93.1768 48.1007 93.1768 47.9477C93.1768 47.8161 93.2011 47.7072 93.2497 47.6211C93.2983 47.535 93.3647 47.4661 93.4487 47.4145C93.5328 47.3628 93.6275 47.3238 93.7328 47.2975C93.8392 47.2701 93.9491 47.2504 94.0625 47.2382C94.1993 47.224 94.3102 47.2114 94.3953 47.2002C94.4803 47.1881 94.5421 47.1699 94.5806 47.1455C94.6201 47.1202 94.6399 47.0812 94.6399 47.0286V47.0194C94.6399 46.905 94.6059 46.8164 94.5381 46.7536C94.4702 46.6908 94.3725 46.6594 94.2448 46.6594C94.1101 46.6594 94.0033 46.6887 93.9243 46.7475C93.8463 46.8062 93.7936 46.8756 93.7663 46.9556L93.2528 46.8827C93.2933 46.7409 93.3601 46.6224 93.4533 46.5272C93.5465 46.431 93.6604 46.3591 93.7951 46.3115C93.9299 46.2628 94.0787 46.2385 94.2418 46.2385C94.3542 46.2385 94.4662 46.2517 94.5776 46.278C94.689 46.3044 94.7908 46.3479 94.8829 46.4087C94.9751 46.4685 95.0491 46.55 95.1048 46.6533C95.1615 46.7566 95.1898 46.8857 95.1898 47.0407V48.6025H94.6611V48.282H94.6429C94.6095 48.3468 94.5624 48.4076 94.5016 48.4643C94.4418 48.52 94.3664 48.5651 94.2752 48.5995C94.1851 48.6329 94.0792 48.6496 93.9577 48.6496ZM94.1005 48.2455C94.2109 48.2455 94.3066 48.2237 94.3877 48.1802C94.4687 48.1356 94.531 48.0769 94.5745 48.0039C94.6191 47.931 94.6414 47.8515 94.6414 47.7654V47.4904C94.6242 47.5046 94.5948 47.5178 94.5533 47.5299C94.5127 47.5421 94.4672 47.5527 94.4165 47.5618C94.3659 47.5709 94.3157 47.579 94.2661 47.5861C94.2165 47.5932 94.1734 47.5993 94.137 47.6044C94.0549 47.6155 93.9815 47.6337 93.9167 47.6591C93.8519 47.6844 93.8007 47.7198 93.7632 47.7654C93.7258 47.81 93.707 47.8677 93.707 47.9386C93.707 48.0399 93.744 48.1164 93.8179 48.168C93.8919 48.2197 93.9861 48.2455 94.1005 48.2455ZM95.7244 48.6025V45.491H96.2744V46.6548H96.2972C96.3255 46.5981 96.3655 46.5378 96.4172 46.474C96.4688 46.4092 96.5387 46.354 96.6268 46.3084C96.715 46.2618 96.8274 46.2385 96.9641 46.2385C97.1444 46.2385 97.307 46.2846 97.4518 46.3768C97.5977 46.4679 97.7131 46.6032 97.7982 46.7824C97.8843 46.9607 97.9273 47.1795 97.9273 47.4388C97.9273 47.695 97.8853 47.9128 97.8012 48.0921C97.7172 48.2713 97.6027 48.4081 97.4579 48.5023C97.3131 48.5965 97.149 48.6436 96.9656 48.6436C96.8319 48.6436 96.721 48.6213 96.6329 48.5767C96.5448 48.5321 96.4739 48.4785 96.4202 48.4157C96.3676 48.3519 96.3265 48.2916 96.2972 48.2349H96.2653V48.6025H95.7244ZM96.2637 47.4357C96.2637 47.5866 96.285 47.7188 96.3275 47.8323C96.3711 47.9457 96.4334 48.0343 96.5144 48.0981C96.5965 48.1609 96.6957 48.1923 96.8122 48.1923C96.9337 48.1923 97.0355 48.1599 97.1176 48.0951C97.1996 48.0293 97.2614 47.9396 97.3029 47.8262C97.3455 47.7117 97.3667 47.5816 97.3667 47.4357C97.3667 47.2909 97.346 47.1623 97.3044 47.0498C97.2629 46.9374 97.2011 46.8493 97.1191 46.7855C97.037 46.7217 96.9347 46.6898 96.8122 46.6898C96.6947 46.6898 96.5949 46.7207 96.5129 46.7824C96.4309 46.8442 96.3686 46.9308 96.326 47.0422C96.2845 47.1536 96.2637 47.2848 96.2637 47.4357ZM98.3521 48.6025V46.2689H98.9021V48.6025H98.3521ZM98.6286 45.9377C98.5415 45.9377 98.4666 45.9088 98.4038 45.8511C98.341 45.7924 98.3096 45.722 98.3096 45.6399C98.3096 45.5569 98.341 45.4865 98.4038 45.4288C98.4666 45.37 98.5415 45.3406 98.6286 45.3406C98.7168 45.3406 98.7917 45.37 98.8535 45.4288C98.9163 45.4865 98.9477 45.5569 98.9477 45.6399C98.9477 45.722 98.9163 45.7924 98.8535 45.8511C98.7917 45.9088 98.7168 45.9377 98.6286 45.9377ZM99.9749 45.491V48.6025H99.4249V45.491H99.9749ZM100.498 48.6025V46.2689H101.048V48.6025H100.498ZM100.774 45.9377C100.687 45.9377 100.612 45.9088 100.549 45.8511C100.486 45.7924 100.455 45.722 100.455 45.6399C100.455 45.5569 100.486 45.4865 100.549 45.4288C100.612 45.37 100.687 45.3406 100.774 45.3406C100.862 45.3406 100.937 45.37 100.999 45.4288C101.062 45.4865 101.093 45.5569 101.093 45.6399C101.093 45.722 101.062 45.7924 100.999 45.8511C100.937 45.9088 100.862 45.9377 100.774 45.9377ZM102.736 46.2689V46.6943H101.394V46.2689H102.736ZM101.725 45.7098H102.275V47.9006C102.275 47.9746 102.286 48.0313 102.309 48.0708C102.332 48.1093 102.362 48.1356 102.4 48.1498C102.437 48.164 102.479 48.1711 102.524 48.1711C102.559 48.1711 102.59 48.1685 102.619 48.1635C102.648 48.1584 102.67 48.1538 102.686 48.1498L102.778 48.5797C102.749 48.5899 102.707 48.601 102.652 48.6132C102.598 48.6253 102.533 48.6324 102.455 48.6344C102.317 48.6385 102.193 48.6177 102.082 48.5722C101.972 48.5256 101.884 48.4536 101.82 48.3564C101.756 48.2592 101.724 48.1376 101.725 47.9918V45.7098ZM103.495 49.4776C103.42 49.4776 103.35 49.4716 103.287 49.4594C103.224 49.4483 103.174 49.4351 103.136 49.4199L103.264 48.9915C103.344 49.0148 103.415 49.0259 103.478 49.0249C103.541 49.0239 103.596 49.0041 103.644 48.9656C103.692 48.9282 103.733 48.8654 103.767 48.7773L103.814 48.6512L102.967 46.2689H103.551L104.089 48.0313H104.113L104.652 46.2689H105.237L104.303 48.8851C104.259 49.0087 104.202 49.1145 104.13 49.2027C104.058 49.2918 103.97 49.3596 103.865 49.4062C103.762 49.4538 103.639 49.4776 103.495 49.4776Z" fill="white"/>
</svg>
