<svg width="25" height="24" viewBox="0 0 25 24" fill="none" xmlns="http://www.w3.org/2000/svg">
<g id="history_edu_FILL0_wght300_GRAD0_opsz24">
<path id="Vector" d="M8.6151 19.3847C8.19972 19.3847 7.84588 19.2385 7.55358 18.9462C7.26128 18.6539 7.11513 18.3001 7.11513 17.8847V16.2886C7.11513 16.0309 7.20134 15.8158 7.37378 15.6434C7.54621 15.4709 7.76128 15.3847 8.01898 15.3847H9.99973V12.6347C9.39076 12.6847 8.78852 12.61 8.193 12.4106C7.59748 12.2113 7.08306 11.8898 6.64973 11.4462V10.1924H5.3651L3.0901 7.9174C2.84523 7.67252 2.7244 7.42252 2.7276 7.1674C2.73082 6.91227 2.85165 6.69368 3.0901 6.51165C3.54138 6.15908 4.09555 5.87607 4.7526 5.6626C5.40965 5.44915 6.12535 5.34242 6.8997 5.34242C7.44587 5.34242 7.97633 5.4046 8.49108 5.52895C9.00583 5.65332 9.50871 5.85845 9.99973 6.14435V5.44242C9.99973 5.18472 10.086 4.96966 10.2584 4.79722C10.4308 4.62479 10.6459 4.53857 10.9036 4.53857H20.0958C20.3535 4.53857 20.5686 4.62479 20.741 4.79722C20.9135 4.96966 20.9997 5.18472 20.9997 5.44242V16.8847C20.9997 17.5834 20.7577 18.1747 20.2737 18.6587C19.7897 19.1427 19.1984 19.3847 18.4997 19.3847H8.6151ZM11.4997 15.3847H16.6151C16.8728 15.3847 17.0846 15.4677 17.2507 15.6337C17.4167 15.7998 17.4997 16.0116 17.4997 16.2693V16.8847C17.4997 17.168 17.5955 17.4055 17.7872 17.5972C17.9789 17.7888 18.2164 17.8847 18.4997 17.8847C18.783 17.8847 19.0205 17.7888 19.2122 17.5972C19.4039 17.4055 19.4997 17.168 19.4997 16.8847V6.03855H11.4997V7.13857L16.9497 12.5885C17.0663 12.7052 17.1455 12.8055 17.1872 12.8895C17.2288 12.9735 17.2497 13.0744 17.2497 13.1924C17.2497 13.3988 17.1763 13.5754 17.0295 13.7222C16.8827 13.869 16.7061 13.9424 16.4997 13.9424C16.3818 13.9424 16.2792 13.9199 16.192 13.8751C16.1048 13.8302 16.0029 13.7494 15.8863 13.6328L13.2497 10.9962L12.867 11.3789C12.6529 11.593 12.4343 11.7789 12.2112 11.9366C11.9882 12.0943 11.751 12.2231 11.4997 12.3232V15.3847ZM6.00355 8.69242H8.14968V10.7462C8.42019 10.918 8.68302 11.0354 8.93815 11.0982C9.19328 11.161 9.44713 11.1924 9.6997 11.1924C10.1215 11.1924 10.5026 11.1245 10.843 10.9886C11.1834 10.8527 11.51 10.6283 11.8228 10.3155L12.1959 9.9424L10.6228 8.3693C10.1138 7.86033 9.5433 7.4786 8.91125 7.2241C8.2792 6.96962 7.60868 6.84238 6.8997 6.84238C6.48943 6.84238 6.09423 6.88661 5.7141 6.97507C5.33397 7.06354 4.97788 7.18342 4.64583 7.3347L6.00355 8.69242ZM8.6151 17.8847H16.2267C16.1446 17.7411 16.0863 17.5844 16.0517 17.4145C16.017 17.2446 15.9997 17.068 15.9997 16.8847H8.6151V17.8847Z" fill="#0078C2"/>
</g>
</svg>
