<svg width="25" height="24" viewBox="0 0 25 24" fill="none" xmlns="http://www.w3.org/2000/svg">
<g id="ar_on_you_FILL0_wght400_GRAD0_opsz48 1">
<path id="Vector" d="M12.5 4.2C14.6667 4.2 16.5083 4.95833 18.025 6.475C19.5417 7.99167 20.3 9.83333 20.3 12C20.3 14.1667 19.5417 16.0083 18.025 17.525C16.5083 19.0417 14.6667 19.8 12.5 19.8C10.3333 19.8 8.49167 19.0417 6.975 17.525C5.45833 16.0083 4.7 14.1667 4.7 12C4.7 9.83333 5.45833 7.99167 6.975 6.475C8.49167 4.95833 10.3333 4.2 12.5 4.2ZM12.5 18.3C14.2333 18.3 15.7167 17.6833 16.95 16.45C18.1833 15.2167 18.8 13.7333 18.8 12C18.8 10.2667 18.1833 8.78333 16.95 7.55C15.7167 6.31667 14.2333 5.7 12.5 5.7C10.7667 5.7 9.28333 6.31667 8.05 7.55C6.81667 8.78333 6.2 10.2667 6.2 12C6.2 13.7333 6.81667 15.2167 8.05 16.45C9.28333 17.6833 10.7667 18.3 12.5 18.3ZM12.5 15.425C13.2833 15.425 13.9917 15.2083 14.625 14.775C15.2583 14.3417 15.7333 13.7583 16.05 13.025H8.95C9.25 13.7583 9.72083 14.3417 10.3625 14.775C11.0042 15.2083 11.7167 15.425 12.5 15.425ZM8.95 9.9C8.95 10.1763 9.04343 10.4078 9.2303 10.5947C9.41718 10.7816 9.64875 10.875 9.925 10.875C10.2013 10.875 10.4328 10.7816 10.6197 10.5947C10.8066 10.4078 10.9 10.1763 10.9 9.9C10.9 9.62375 10.8066 9.39219 10.6197 9.20533C10.4328 9.01844 10.2013 8.925 9.925 8.925C9.64875 8.925 9.41718 9.01844 9.2303 9.20533C9.04343 9.39219 8.95 9.62375 8.95 9.9ZM14.1 9.9C14.1 10.1763 14.1934 10.4078 14.3803 10.5947C14.5672 10.7816 14.7987 10.875 15.075 10.875C15.3513 10.875 15.5828 10.7816 15.7697 10.5947C15.9566 10.4078 16.05 10.1763 16.05 9.9C16.05 9.62375 15.9566 9.39219 15.7697 9.20533C15.5828 9.01844 15.3513 8.925 15.075 8.925C14.7987 8.925 14.5672 9.01844 14.3803 9.20533C14.1934 9.39219 14.1 9.62375 14.1 9.9ZM1.5 5.725V3.8C1.5 3.03333 1.775 2.375 2.325 1.825C2.875 1.275 3.53333 1 4.3 1H6.225V2.5H4.3C3.93167 2.5 3.62292 2.62458 3.37375 2.87375C3.12458 3.12292 3 3.43167 3 3.8V5.725H1.5ZM4.3 23C3.53333 23 2.875 22.725 2.325 22.175C1.775 21.625 1.5 20.9667 1.5 20.2V18.275H3V20.2C3 20.5683 3.12458 20.8771 3.37375 21.1262C3.62292 21.3754 3.93167 21.5 4.3 21.5H6.225V23H4.3ZM18.775 22.9V21.4H20.7C21.0683 21.4 21.3771 21.2754 21.6262 21.0263C21.8754 20.7771 22 20.4683 22 20.1V18.15H23.5V20.1C23.5 20.8667 23.225 21.525 22.675 22.075C22.125 22.625 21.4667 22.9 20.7 22.9H18.775ZM22 5.725V3.8C22 3.43167 21.8754 3.12292 21.6262 2.87375C21.3771 2.62458 21.0683 2.5 20.7 2.5H18.775V1H20.7C21.4667 1 22.125 1.275 22.675 1.825C23.225 2.375 23.5 3.03333 23.5 3.8V5.725H22Z" fill="#0078C2"/>
</g>
</svg>
