<svg width="40" height="40" viewBox="0 0 40 40" fill="none" xmlns="http://www.w3.org/2000/svg">
<g id="edit_document_FILL0_wght300_GRAD0_opsz24">
<path id="Vector" d="M10.6033 35.6829C9.76941 35.6829 9.06359 35.394 8.48581 34.8162C7.90803 34.2384 7.61914 33.5326 7.61914 32.6987V7.30201C7.61914 6.46814 7.90803 5.76232 8.48581 5.18454C9.06359 4.60676 9.76941 4.31787 10.6033 4.31787H22.4795C22.8773 4.31787 23.2599 4.39513 23.6271 4.54964C23.9942 4.70413 24.3133 4.91682 24.5842 5.18772L31.5111 12.1146C31.782 12.3855 31.9947 12.7046 32.1492 13.0718C32.3037 13.439 32.381 13.8215 32.381 14.2194V19.2543H29.9048V14.2226H23.9684C23.543 14.2226 23.188 14.0802 22.9033 13.7955C22.6186 13.5109 22.4763 13.1559 22.4763 12.7305V6.79402H10.6033C10.4763 6.79402 10.3599 6.84693 10.254 6.95275C10.1482 7.05859 10.0953 7.17501 10.0953 7.30201V32.6987C10.0953 32.8257 10.1482 32.9422 10.254 33.048C10.3599 33.1538 10.4763 33.2067 10.6033 33.2067H19.3969V35.6829H10.6033ZM29.6381 24.2004L31.0476 25.594L24.6666 31.9496V33.6829H26.4L32.7809 27.3273L34.165 28.7114L27.6888 35.2035C27.5343 35.358 27.3672 35.4712 27.1873 35.5432C27.0074 35.6151 26.8179 35.6511 26.619 35.6511H23.4444C23.2455 35.6511 23.0714 35.5791 22.9222 35.4353C22.773 35.2913 22.6984 35.1146 22.6984 34.9051V31.7623C22.6984 31.5633 22.7344 31.3739 22.8064 31.194C22.8783 31.0141 22.9915 30.8469 23.146 30.6924L29.6381 24.2004ZM34.165 28.7114L29.6381 24.2004L31.7936 22.0448C32.0751 21.7739 32.4259 21.6385 32.846 21.6385C33.2661 21.6385 33.6116 21.7739 33.8825 22.0448L36.3205 24.4829C36.5915 24.7538 36.7269 25.0993 36.7269 25.5194C36.7269 25.9395 36.5915 26.2903 36.3205 26.5718L34.165 28.7114Z" fill="white"/>
</g>
</svg>
