<svg width="68" height="68" viewBox="0 0 68 68" fill="none" xmlns="http://www.w3.org/2000/svg">
<path d="M2.30078 21.6865C0.871094 21.6865 0.15625 20.9482 0.15625 19.4717V10.4365C0.15625 7.03809 1.02344 4.4834 2.75781 2.77246C4.49219 1.06152 7.07031 0.206055 10.4922 0.206055H19.5273C21.0039 0.206055 21.7422 0.920898 21.7422 2.35059C21.7422 3.80371 21.0039 4.53027 19.5273 4.53027H10.5977C8.60547 4.53027 7.08203 5.0459 6.02734 6.07715C4.99609 7.1084 4.48047 8.64355 4.48047 10.6826V19.4717C4.48047 20.9482 3.75391 21.6865 2.30078 21.6865ZM65.2305 21.6865C63.8008 21.6865 63.0859 20.9482 63.0859 19.4717V10.6826C63.0859 8.64355 62.5469 7.1084 61.4688 6.07715C60.3906 5.0459 58.8789 4.53027 56.9336 4.53027H48.0391C46.5625 4.53027 45.8242 3.80371 45.8242 2.35059C45.8242 0.920898 46.5625 0.206055 48.0391 0.206055H57.0391C60.4844 0.206055 63.0742 1.07324 64.8086 2.80762C66.543 4.51855 67.4102 7.06152 67.4102 10.4365V19.4717C67.4102 20.9482 66.6836 21.6865 65.2305 21.6865ZM10.4922 67.4248C7.07031 67.4248 4.49219 66.5576 2.75781 64.8232C1.02344 63.1123 0.15625 60.5576 0.15625 57.1592V48.1592C0.15625 46.6826 0.871094 45.9443 2.30078 45.9443C3.75391 45.9443 4.48047 46.6826 4.48047 48.1592V56.9482C4.48047 58.9873 4.99609 60.5225 6.02734 61.5537C7.08203 62.585 8.60547 63.1006 10.5977 63.1006H19.5273C21.0039 63.1006 21.7422 63.8271 21.7422 65.2803C21.7422 66.71 21.0039 67.4248 19.5273 67.4248H10.4922ZM48.0391 67.4248C46.5625 67.4248 45.8242 66.71 45.8242 65.2803C45.8242 63.8271 46.5625 63.1006 48.0391 63.1006H56.9336C58.8789 63.1006 60.3906 62.585 61.4688 61.5537C62.5469 60.5225 63.0859 58.9873 63.0859 56.9482V48.1592C63.0859 46.6826 63.8008 45.9443 65.2305 45.9443C66.6836 45.9443 67.4102 46.6826 67.4102 48.1592V57.1592C67.4102 60.5576 66.543 63.1123 64.8086 64.8232C63.0742 66.5576 60.4844 67.4248 57.0391 67.4248H48.0391ZM20.7227 31.0029C20.043 31.0029 19.4805 30.792 19.0352 30.3701C18.6133 29.9482 18.4023 29.374 18.4023 28.6475V23.9014C18.4023 23.1982 18.6133 22.6357 19.0352 22.2139C19.4805 21.7686 20.043 21.5459 20.7227 21.5459C21.4023 21.5459 21.9648 21.7686 22.4102 22.2139C22.8555 22.6357 23.0781 23.1982 23.0781 23.9014V28.6475C23.0781 29.374 22.8555 29.9482 22.4102 30.3701C21.9648 30.792 21.4023 31.0029 20.7227 31.0029ZM30.918 39.2295C30.1914 39.2295 29.6289 39.0654 29.2305 38.7373C28.832 38.3857 28.6328 37.917 28.6328 37.3311C28.6328 36.8154 28.7969 36.3936 29.125 36.0654C29.4766 35.7139 29.9102 35.5381 30.4258 35.5381H31.6211C31.8789 35.5381 32.1016 35.4561 32.2891 35.292C32.5 35.1279 32.6055 34.8818 32.6055 34.5537V23.3037C32.6055 22.7412 32.7695 22.3076 33.0977 22.0029C33.4258 21.6748 33.8594 21.5107 34.3984 21.5107C34.9609 21.5107 35.4062 21.6748 35.7344 22.0029C36.0625 22.3076 36.2266 22.7412 36.2266 23.3037V34.2373C36.2266 35.8779 35.8047 37.1201 34.9609 37.9639C34.1172 38.8076 32.875 39.2295 31.2344 39.2295C31.1875 39.2295 31.1289 39.2295 31.0586 39.2295C31.0117 39.2295 30.9648 39.2295 30.918 39.2295ZM46.6328 31.0029C45.9297 31.0029 45.3672 30.792 44.9453 30.3701C44.5234 29.9482 44.3125 29.374 44.3125 28.6475V23.9014C44.3125 23.1982 44.5234 22.6357 44.9453 22.2139C45.3672 21.7686 45.9297 21.5459 46.6328 21.5459C47.3125 21.5459 47.8633 21.7686 48.2852 22.2139C48.7305 22.6357 48.9531 23.1982 48.9531 23.9014V28.6475C48.9531 29.374 48.7305 29.9482 48.2852 30.3701C47.8633 30.792 47.3125 31.0029 46.6328 31.0029ZM33.5195 50.585C31.4805 50.585 29.4648 50.1865 27.4727 49.3896C25.4805 48.5693 23.793 47.3857 22.4102 45.8389C22.2227 45.6514 22.0703 45.4521 21.9531 45.2412C21.8594 45.0068 21.8125 44.7607 21.8125 44.5029C21.8125 43.9639 21.9883 43.5303 22.3398 43.2021C22.6914 42.874 23.125 42.71 23.6406 42.71C23.9688 42.71 24.2383 42.7803 24.4492 42.9209C24.6836 43.0615 24.9297 43.249 25.1875 43.4834C26.2188 44.5381 27.4844 45.3818 28.9844 46.0146C30.4844 46.6475 31.9961 46.9639 33.5195 46.9639C35.1367 46.9639 36.6836 46.6475 38.1602 46.0146C39.6602 45.3584 40.9141 44.5146 41.9219 43.4834C42.4141 42.9678 42.918 42.71 43.4336 42.71C43.9258 42.71 44.3477 42.874 44.6992 43.2021C45.0508 43.5303 45.2266 43.9639 45.2266 44.5029C45.2266 44.8076 45.1797 45.0771 45.0859 45.3115C44.9922 45.5225 44.8633 45.71 44.6992 45.874C43.1992 47.3506 41.4648 48.5107 39.4961 49.3545C37.5508 50.1748 35.5586 50.585 33.5195 50.585Z" fill="white"/>
</svg>
