<svg width="24" height="24" viewBox="0 0 24 24" fill="none" xmlns="http://www.w3.org/2000/svg">
<g id="fingerprint_FILL0_wght200_GRAD200_opsz24 1">
<path id="Vector" d="M3.31877 9.84051C3.23032 9.78283 3.17006 9.69822 3.138 9.58669C3.10595 9.47514 3.12903 9.35526 3.20725 9.22706C4.2534 7.8027 5.54336 6.67481 7.07715 5.84341C8.61093 5.012 10.2472 4.59629 11.9861 4.59629C13.7602 4.59629 15.4306 4.99629 16.9974 5.79629C18.5642 6.59629 19.8495 7.72321 20.8534 9.17706C20.9611 9.32193 20.9931 9.45975 20.9495 9.59051C20.906 9.7213 20.8239 9.81553 20.7034 9.87321C20.5829 9.93091 20.4681 9.95631 20.3591 9.94939C20.25 9.94249 20.1494 9.8671 20.0572 9.72321C19.1316 8.39758 17.9584 7.37322 16.5378 6.65014C15.1171 5.92706 13.5999 5.56551 11.9861 5.56551C10.4194 5.56551 8.93385 5.93346 7.52935 6.66936C6.12486 7.40526 4.96621 8.42321 4.0534 9.72321C3.94955 9.88091 3.83128 9.95751 3.6986 9.95301C3.5659 9.94853 3.43929 9.91103 3.31877 9.84051ZM14.8803 22.304C13.0483 21.8873 11.6345 20.9925 10.639 19.6194C9.64346 18.2463 9.1457 16.6066 9.1457 14.7001C9.1457 13.8924 9.42679 13.2097 9.98897 12.6521C10.5512 12.0944 11.2301 11.8155 12.0259 11.8155C12.8383 11.8155 13.5229 12.0944 14.0797 12.6521C14.6365 13.2097 14.9149 13.8924 14.9149 14.7001C14.9149 15.2494 15.0966 15.7226 15.46 16.1197C15.8234 16.5169 16.2782 16.7155 16.8244 16.7155C17.3707 16.7155 17.8274 16.5152 18.1947 16.1146C18.562 15.7139 18.7457 15.2424 18.7457 14.7001C18.7457 12.8342 18.0851 11.2485 16.7639 9.94301C15.4427 8.63751 13.845 7.98476 11.9706 7.98476C10.113 7.98476 8.53289 8.63941 7.23032 9.94871C5.92775 11.258 5.27647 12.8482 5.27647 14.7194C5.27647 15.4091 5.32359 16.0796 5.41782 16.7309C5.51206 17.3822 5.62776 17.9412 5.76492 18.4078C5.81877 18.5527 5.82615 18.6841 5.78705 18.8021C5.74795 18.92 5.66621 19.004 5.54185 19.054C5.3675 19.1373 5.21718 19.135 5.0909 19.0469C4.96461 18.9589 4.88288 18.8536 4.8457 18.7309C4.61621 18.0091 4.4691 17.3255 4.40435 16.6799C4.33961 16.0344 4.30725 15.3745 4.30725 14.7001C4.30725 12.5607 5.05204 10.7419 6.54162 9.24364C8.03121 7.74541 9.84632 6.99629 11.987 6.99629C14.1441 6.99629 15.9713 7.74541 17.4688 9.24364C18.9662 10.7419 19.7149 12.5607 19.7149 14.7001C19.7149 15.5227 19.4386 16.229 18.886 16.819C18.3334 17.409 17.6482 17.704 16.8303 17.704C16.0188 17.704 15.3351 17.409 14.7793 16.819C14.2236 16.229 13.9457 15.5227 13.9457 14.7001C13.9457 14.1745 13.7571 13.7239 13.3798 13.3482C13.0026 12.9726 12.5508 12.7848 12.0245 12.7848C11.5044 12.7848 11.0562 12.9709 10.6797 13.343C10.3032 13.7152 10.1149 14.1676 10.1149 14.7001C10.1149 16.3718 10.5569 17.7955 11.4409 18.9712C12.3249 20.1469 13.5585 20.9348 15.1418 21.3348C15.2937 21.3727 15.4054 21.4485 15.4769 21.5622C15.5484 21.6758 15.5675 21.7916 15.5342 21.9095C15.5008 22.0315 15.4303 22.1402 15.3226 22.2357C15.2149 22.3312 15.0675 22.354 14.8803 22.304ZM6.31492 4.65399C6.22904 4.69886 6.11879 4.71103 5.98417 4.69051C5.84956 4.67001 5.7534 4.58732 5.6957 4.44244C5.63801 4.33091 5.62456 4.20976 5.65532 4.07899C5.68609 3.94822 5.75724 3.85399 5.86877 3.79629C6.80596 3.23347 7.79121 2.8261 8.82455 2.57419C9.85788 2.32225 10.9245 2.19629 12.0245 2.19629C13.1077 2.19629 14.162 2.33379 15.1876 2.60879C16.2132 2.88379 17.2018 3.27962 18.1534 3.79629C18.2906 3.86681 18.3726 3.96328 18.3995 4.08571C18.4265 4.20815 18.4047 4.32321 18.3342 4.43091C18.2637 4.5386 18.163 4.60879 18.0322 4.64149C17.9015 4.67417 17.7681 4.65334 17.6322 4.57899C16.7951 4.07386 15.8962 3.712 14.9356 3.49341C13.9751 3.27481 13.0016 3.16551 12.0152 3.16551C11.0125 3.16551 10.038 3.30334 9.09185 3.57899C8.1457 3.85462 7.22006 4.21296 6.31492 4.65399ZM9.40725 21.8424C8.3957 20.8181 7.69922 19.686 7.31782 18.4463C6.9364 17.2066 6.7457 15.9576 6.7457 14.6995C6.7457 13.2256 7.25722 11.9764 8.28027 10.9521C9.30331 9.9277 10.5517 9.41551 12.0254 9.41551C13.5159 9.41551 14.7701 9.9277 15.788 10.9521C16.8059 11.9764 17.3149 13.2258 17.3149 14.7001C17.3149 14.8489 17.2713 14.9668 17.1842 15.054C17.097 15.1412 16.979 15.1848 16.8303 15.1848C16.6854 15.1848 16.5684 15.1412 16.4793 15.054C16.3902 14.9668 16.3457 14.8489 16.3457 14.7001C16.3457 13.5078 15.9237 12.4905 15.0798 11.6482C14.2359 10.8059 13.2176 10.3848 12.025 10.3848C10.8491 10.3848 9.83673 10.8059 8.988 11.6482C8.13928 12.4905 7.71492 13.5073 7.71492 14.6987C7.71492 15.8253 7.88384 16.9335 8.22167 18.0232C8.55949 19.113 9.2034 20.1528 10.1534 21.1426C10.2701 21.2617 10.3229 21.3803 10.312 21.4982C10.3011 21.6162 10.2649 21.7309 10.2034 21.8425C10.129 21.9668 10.0037 22.0238 9.82742 22.0136C9.65114 22.0033 9.51108 21.9463 9.40725 21.8424ZM17.0803 20.104C15.4854 20.104 14.1643 19.6173 13.1168 18.6438C12.0694 17.6704 11.5457 16.3558 11.5457 14.7001C11.5457 14.5476 11.5848 14.4287 11.6629 14.3434C11.741 14.2581 11.8538 14.2155 12.0013 14.2155C12.1489 14.2155 12.2713 14.2581 12.3688 14.3434C12.4662 14.4287 12.5149 14.5476 12.5149 14.7001C12.5149 16.0895 12.9412 17.1759 13.7938 17.9595C14.6463 18.743 15.7419 19.1348 17.0803 19.1348C17.3944 19.1348 17.6306 19.1181 17.789 19.0848C17.9473 19.0514 18.1201 19.0348 18.3072 19.0348C18.456 19.0476 18.5611 19.0953 18.6226 19.178C18.6842 19.2607 18.7149 19.3592 18.7149 19.4733C18.7149 19.5915 18.6755 19.6887 18.5967 19.7648C18.5178 19.8409 18.4162 19.904 18.2918 19.954C18.2239 19.9655 18.0922 19.9934 17.8967 20.0376C17.7012 20.0819 17.429 20.104 17.0803 20.104Z" fill="#0078C2"/>
</g>
</svg>
