<svg width="241" height="240" viewBox="0 0 241 240" fill="none" xmlns="http://www.w3.org/2000/svg">
<g id="fingerprint_FILL0_wght700_GRAD0_opsz48 1">
<path id="Vector" d="M32.252 96.5C31.0853 96 30.377 95.0833 30.127 93.75C29.877 92.4167 30.002 91.25 30.502 90.25C40.6686 75.25 53.752 63.6667 69.752 55.5C85.752 47.3333 102.919 43.25 121.252 43.25C139.085 43.25 155.919 47.125 171.752 54.875C187.585 62.625 200.669 73.75 211.002 88.25C212.002 89.75 212.377 91.125 212.127 92.375C211.877 93.625 211.252 94.6667 210.252 95.5C209.252 96.3333 208.085 96.7083 206.752 96.625C205.419 96.5417 204.335 95.75 203.502 94.25C194.169 81.0833 182.21 70.9583 167.627 63.875C153.044 56.7917 137.585 53.1667 121.252 53C104.752 53 89.2936 56.5417 74.877 63.625C60.4603 70.7083 48.6686 81 39.502 94.5C38.3353 96 37.0853 96.875 35.752 97.125C34.4186 97.375 33.252 97.1667 32.252 96.5ZM153.252 223.25C133.752 219.25 118.46 210.458 107.377 196.875C96.2936 183.292 90.752 167.083 90.752 148.25C90.752 139.75 93.7103 132.5 99.627 126.5C105.544 120.5 112.752 117.5 121.252 117.5C129.752 117.5 137.002 120.375 143.002 126.125C149.002 131.875 152.002 138.917 152.002 147.25C152.002 153.083 154.044 158 158.127 162C162.21 166 167.169 168 173.002 168C178.669 168 183.502 166 187.502 162C191.502 158 193.502 153.083 193.502 147.25C193.502 127.75 186.419 111.375 172.252 98.125C158.085 84.875 141.002 78.25 121.002 78.25C101.002 78.25 84.002 85.0417 70.002 98.625C56.002 112.208 49.002 128.833 49.002 148.5C49.002 154.667 49.4603 160.75 50.377 166.75C51.2936 172.75 52.8353 178.583 55.002 184.25C55.502 185.917 55.5436 187.25 55.127 188.25C54.7103 189.25 53.9186 190 52.752 190.5C51.4186 191 50.0853 191.083 48.752 190.75C47.4186 190.417 46.4186 189.333 45.752 187.5C44.0853 182.667 42.627 176.875 41.377 170.125C40.127 163.375 39.502 156.083 39.502 148.25C39.502 126.417 47.5436 107.542 63.627 91.625C79.7103 75.7083 98.9186 67.75 121.252 67.75C143.919 67.75 163.252 75.4583 179.252 90.875C195.252 106.292 203.252 125.083 203.252 147.25C203.252 155.583 200.335 162.75 194.502 168.75C188.669 174.75 181.502 177.75 173.002 177.75C164.335 177.75 157.002 174.875 151.002 169.125C145.002 163.375 142.002 156.417 142.002 148.25C142.002 142.417 140.002 137.417 136.002 133.25C132.002 129.083 127.085 127 121.252 127C115.585 127 110.71 129.083 106.627 133.25C102.544 137.417 100.502 142.417 100.502 148.25C100.502 165.25 105.335 179.583 115.002 191.25C124.669 202.917 138.335 210.667 156.002 214.5C157.502 214.667 158.502 215.292 159.002 216.375C159.502 217.458 159.669 218.583 159.502 219.75C159.169 221.083 158.544 222.083 157.627 222.75C156.71 223.417 155.252 223.583 153.252 223.25ZM62.752 42.5C61.0853 43.3333 59.7103 43.5833 58.627 43.25C57.5436 42.9167 56.6686 42.25 56.002 41.25C55.502 40.5833 55.3353 39.4583 55.502 37.875C55.6686 36.2917 56.3353 35.25 57.502 34.75C67.1686 29.0833 77.4603 24.9583 88.377 22.375C99.2936 19.7917 110.252 18.5 121.252 18.5C132.252 18.5 143.044 19.7917 153.627 22.375C164.21 24.9583 174.335 28.8333 184.002 34C185.502 34.6667 186.377 35.6667 186.627 37C186.877 38.3333 186.752 39.5 186.252 40.5C185.585 41.5 184.669 42.2917 183.502 42.875C182.335 43.4583 181.085 43.3333 179.752 42.5C170.752 38 161.294 34.5 151.377 32C141.46 29.5 131.419 28.25 121.252 28.25C110.919 28.25 100.835 29.4167 91.002 31.75C81.1686 34.0833 71.752 37.6667 62.752 42.5ZM94.252 219C84.5853 209.167 77.3353 198.458 72.502 186.875C67.6686 175.292 65.252 162.417 65.252 148.25C65.252 132.917 70.6686 119.833 81.502 109C92.3353 98.1667 105.585 92.75 121.252 92.75C136.752 92.75 150.044 98.0417 161.127 108.625C172.21 119.208 177.752 132.083 177.752 147.25C177.752 148.917 177.377 150.292 176.627 151.375C175.877 152.458 174.669 153 173.002 153C171.169 153 169.835 152.458 169.002 151.375C168.169 150.292 167.752 148.917 167.752 147.25C167.752 134.583 163.21 123.917 154.127 115.25C145.044 106.583 134.085 102.25 121.252 102.25C108.419 102.25 97.502 106.75 88.502 115.75C79.502 124.75 75.002 135.583 75.002 148.25C75.002 161.583 77.0853 173.208 81.252 183.125C85.4186 193.042 92.252 202.917 101.752 212.75C102.919 213.917 103.502 215.083 103.502 216.25C103.502 217.417 103.169 218.417 102.502 219.25C101.669 220.417 100.377 221 98.627 221C96.877 221 95.4186 220.333 94.252 219ZM174.752 202C158.585 202 144.835 197.292 133.502 187.875C122.169 178.458 116.502 165 116.502 147.5C116.502 146 116.919 144.75 117.752 143.75C118.585 142.75 119.752 142.25 121.252 142.25C122.752 142.25 123.919 142.75 124.752 143.75C125.585 144.75 126.002 146 126.002 147.5C126.002 162.167 130.794 173.333 140.377 181C149.96 188.667 161.419 192.5 174.752 192.5C176.419 192.5 178.335 192.333 180.502 192C182.669 191.667 184.669 191.5 186.502 191.5C187.835 191.5 188.96 191.917 189.877 192.75C190.794 193.583 191.169 194.5 191.002 195.5C191.002 196.833 190.71 197.875 190.127 198.625C189.544 199.375 188.752 199.917 187.752 200.25C185.419 201.083 183.044 201.583 180.627 201.75C178.21 201.917 176.252 202 174.752 202Z" fill="#919BA7"/>
</g>
</svg>
