<svg width="240" height="240" viewBox="0 0 240 240" fill="none" xmlns="http://www.w3.org/2000/svg">
<g id="fingerprint_FILL0_wght700_GRAD0_opsz48 1">
<path id="Vector" d="M31.752 96.5C30.5853 96 29.877 95.0833 29.627 93.75C29.377 92.4167 29.502 91.25 30.002 90.25C40.1686 75.25 53.252 63.6667 69.252 55.5C85.252 47.3333 102.419 43.25 120.752 43.25C138.585 43.25 155.419 47.125 171.252 54.875C187.085 62.625 200.169 73.75 210.502 88.25C211.502 89.75 211.877 91.125 211.627 92.375C211.377 93.625 210.752 94.6667 209.752 95.5C208.752 96.3333 207.585 96.7083 206.252 96.625C204.919 96.5417 203.835 95.75 203.002 94.25C193.669 81.0833 181.71 70.9583 167.127 63.875C152.544 56.7917 137.085 53.1667 120.752 53C104.252 53 88.7936 56.5417 74.377 63.625C59.9603 70.7083 48.1686 81 39.002 94.5C37.8353 96 36.5853 96.875 35.252 97.125C33.9186 97.375 32.752 97.1667 31.752 96.5ZM152.752 223.25C133.252 219.25 117.96 210.458 106.877 196.875C95.7936 183.292 90.252 167.083 90.252 148.25C90.252 139.75 93.2103 132.5 99.127 126.5C105.044 120.5 112.252 117.5 120.752 117.5C129.252 117.5 136.502 120.375 142.502 126.125C148.502 131.875 151.502 138.917 151.502 147.25C151.502 153.083 153.544 158 157.627 162C161.71 166 166.669 168 172.502 168C178.169 168 183.002 166 187.002 162C191.002 158 193.002 153.083 193.002 147.25C193.002 127.75 185.919 111.375 171.752 98.125C157.585 84.875 140.502 78.25 120.502 78.25C100.502 78.25 83.502 85.0417 69.502 98.625C55.502 112.208 48.502 128.833 48.502 148.5C48.502 154.667 48.9603 160.75 49.877 166.75C50.7936 172.75 52.3353 178.583 54.502 184.25C55.002 185.917 55.0436 187.25 54.627 188.25C54.2103 189.25 53.4186 190 52.252 190.5C50.9186 191 49.5853 191.083 48.252 190.75C46.9186 190.417 45.9186 189.333 45.252 187.5C43.5853 182.667 42.127 176.875 40.877 170.125C39.627 163.375 39.002 156.083 39.002 148.25C39.002 126.417 47.0436 107.542 63.127 91.625C79.2103 75.7083 98.4186 67.75 120.752 67.75C143.419 67.75 162.752 75.4583 178.752 90.875C194.752 106.292 202.752 125.083 202.752 147.25C202.752 155.583 199.835 162.75 194.002 168.75C188.169 174.75 181.002 177.75 172.502 177.75C163.835 177.75 156.502 174.875 150.502 169.125C144.502 163.375 141.502 156.417 141.502 148.25C141.502 142.417 139.502 137.417 135.502 133.25C131.502 129.083 126.585 127 120.752 127C115.085 127 110.21 129.083 106.127 133.25C102.044 137.417 100.002 142.417 100.002 148.25C100.002 165.25 104.835 179.583 114.502 191.25C124.169 202.917 137.835 210.667 155.502 214.5C157.002 214.667 158.002 215.292 158.502 216.375C159.002 217.458 159.169 218.583 159.002 219.75C158.669 221.083 158.044 222.083 157.127 222.75C156.21 223.417 154.752 223.583 152.752 223.25ZM62.252 42.5C60.5853 43.3333 59.2103 43.5833 58.127 43.25C57.0436 42.9167 56.1686 42.25 55.502 41.25C55.002 40.5833 54.8353 39.4583 55.002 37.875C55.1686 36.2917 55.8353 35.25 57.002 34.75C66.6686 29.0833 76.9603 24.9583 87.877 22.375C98.7936 19.7917 109.752 18.5 120.752 18.5C131.752 18.5 142.544 19.7917 153.127 22.375C163.71 24.9583 173.835 28.8333 183.502 34C185.002 34.6667 185.877 35.6667 186.127 37C186.377 38.3333 186.252 39.5 185.752 40.5C185.085 41.5 184.169 42.2917 183.002 42.875C181.835 43.4583 180.585 43.3333 179.252 42.5C170.252 38 160.794 34.5 150.877 32C140.96 29.5 130.919 28.25 120.752 28.25C110.419 28.25 100.335 29.4167 90.502 31.75C80.6686 34.0833 71.252 37.6667 62.252 42.5ZM93.752 219C84.0853 209.167 76.8353 198.458 72.002 186.875C67.1686 175.292 64.752 162.417 64.752 148.25C64.752 132.917 70.1686 119.833 81.002 109C91.8353 98.1667 105.085 92.75 120.752 92.75C136.252 92.75 149.544 98.0417 160.627 108.625C171.71 119.208 177.252 132.083 177.252 147.25C177.252 148.917 176.877 150.292 176.127 151.375C175.377 152.458 174.169 153 172.502 153C170.669 153 169.335 152.458 168.502 151.375C167.669 150.292 167.252 148.917 167.252 147.25C167.252 134.583 162.71 123.917 153.627 115.25C144.544 106.583 133.585 102.25 120.752 102.25C107.919 102.25 97.002 106.75 88.002 115.75C79.002 124.75 74.502 135.583 74.502 148.25C74.502 161.583 76.5853 173.208 80.752 183.125C84.9186 193.042 91.752 202.917 101.252 212.75C102.419 213.917 103.002 215.083 103.002 216.25C103.002 217.417 102.669 218.417 102.002 219.25C101.169 220.417 99.877 221 98.127 221C96.377 221 94.9186 220.333 93.752 219ZM174.252 202C158.085 202 144.335 197.292 133.002 187.875C121.669 178.458 116.002 165 116.002 147.5C116.002 146 116.419 144.75 117.252 143.75C118.085 142.75 119.252 142.25 120.752 142.25C122.252 142.25 123.419 142.75 124.252 143.75C125.085 144.75 125.502 146 125.502 147.5C125.502 162.167 130.294 173.333 139.877 181C149.46 188.667 160.919 192.5 174.252 192.5C175.919 192.5 177.835 192.333 180.002 192C182.169 191.667 184.169 191.5 186.002 191.5C187.335 191.5 188.46 191.917 189.377 192.75C190.294 193.583 190.669 194.5 190.502 195.5C190.502 196.833 190.21 197.875 189.627 198.625C189.044 199.375 188.252 199.917 187.252 200.25C184.919 201.083 182.544 201.583 180.127 201.75C177.71 201.917 175.752 202 174.252 202Z" fill="#0078C2"/>
</g>
</svg>
