<svg width="25" height="24" viewBox="0 0 25 24" fill="none" xmlns="http://www.w3.org/2000/svg">
<g id="fingerprint_FILL0_wght700_GRAD0_opsz48 1">
<path id="Vector" d="M3.6752 9.64961C3.55853 9.59961 3.4877 9.50794 3.4627 9.37461C3.4377 9.24128 3.4502 9.12461 3.5002 9.02461C4.51686 7.52461 5.8252 6.36628 7.4252 5.54961C9.0252 4.73294 10.7419 4.32461 12.5752 4.32461C14.3585 4.32461 16.0419 4.71211 17.6252 5.48711C19.2085 6.26211 20.5169 7.37461 21.5502 8.82461C21.6502 8.97461 21.6877 9.11211 21.6627 9.23711C21.6377 9.36211 21.5752 9.46628 21.4752 9.54961C21.3752 9.63294 21.2585 9.67044 21.1252 9.66211C20.9919 9.65378 20.8835 9.57461 20.8002 9.42461C19.8669 8.10794 18.671 7.09544 17.2127 6.38711C15.7544 5.67878 14.2085 5.31628 12.5752 5.29961C10.9252 5.29961 9.37936 5.65378 7.9377 6.36211C6.49603 7.07044 5.31686 8.09961 4.4002 9.44961C4.28353 9.59961 4.15853 9.68711 4.0252 9.71211C3.89186 9.73711 3.7752 9.71628 3.6752 9.64961ZM15.7752 22.3246C13.8252 21.9246 12.296 21.0454 11.1877 19.6871C10.0794 18.3288 9.5252 16.7079 9.5252 14.8246C9.5252 13.9746 9.82103 13.2496 10.4127 12.6496C11.0044 12.0496 11.7252 11.7496 12.5752 11.7496C13.4252 11.7496 14.1502 12.0371 14.7502 12.6121C15.3502 13.1871 15.6502 13.8913 15.6502 14.7246C15.6502 15.3079 15.8544 15.7996 16.2627 16.1996C16.671 16.5996 17.1669 16.7996 17.7502 16.7996C18.3169 16.7996 18.8002 16.5996 19.2002 16.1996C19.6002 15.7996 19.8002 15.3079 19.8002 14.7246C19.8002 12.7746 19.0919 11.1371 17.6752 9.81211C16.2585 8.48711 14.5502 7.82461 12.5502 7.82461C10.5502 7.82461 8.8502 8.50378 7.4502 9.86211C6.0502 11.2204 5.3502 12.8829 5.3502 14.8496C5.3502 15.4663 5.39603 16.0746 5.4877 16.6746C5.57936 17.2746 5.73353 17.8579 5.9502 18.4246C6.0002 18.5913 6.00436 18.7246 5.9627 18.8246C5.92103 18.9246 5.84186 18.9996 5.7252 19.0496C5.59186 19.0996 5.45853 19.1079 5.3252 19.0746C5.19186 19.0413 5.09186 18.9329 5.0252 18.7496C4.85853 18.2663 4.7127 17.6871 4.5877 17.0121C4.4627 16.3371 4.4002 15.6079 4.4002 14.8246C4.4002 12.6413 5.20436 10.7538 6.8127 9.16211C8.42103 7.57044 10.3419 6.77461 12.5752 6.77461C14.8419 6.77461 16.7752 7.54544 18.3752 9.08711C19.9752 10.6288 20.7752 12.5079 20.7752 14.7246C20.7752 15.5579 20.4835 16.2746 19.9002 16.8746C19.3169 17.4746 18.6002 17.7746 17.7502 17.7746C16.8835 17.7746 16.1502 17.4871 15.5502 16.9121C14.9502 16.3371 14.6502 15.6413 14.6502 14.8246C14.6502 14.2413 14.4502 13.7413 14.0502 13.3246C13.6502 12.9079 13.1585 12.6996 12.5752 12.6996C12.0085 12.6996 11.521 12.9079 11.1127 13.3246C10.7044 13.7413 10.5002 14.2413 10.5002 14.8246C10.5002 16.5246 10.9835 17.9579 11.9502 19.1246C12.9169 20.2913 14.2835 21.0663 16.0502 21.4496C16.2002 21.4663 16.3002 21.5288 16.3502 21.6371C16.4002 21.7454 16.4169 21.8579 16.4002 21.9746C16.3669 22.1079 16.3044 22.2079 16.2127 22.2746C16.121 22.3413 15.9752 22.3579 15.7752 22.3246ZM6.7252 4.24961C6.55853 4.33294 6.42103 4.35794 6.3127 4.32461C6.20436 4.29128 6.11686 4.22461 6.0502 4.12461C6.0002 4.05794 5.98353 3.94544 6.0002 3.78711C6.01686 3.62878 6.08353 3.52461 6.2002 3.47461C7.16686 2.90794 8.19603 2.49544 9.2877 2.23711C10.3794 1.97878 11.4752 1.84961 12.5752 1.84961C13.6752 1.84961 14.7544 1.97878 15.8127 2.23711C16.871 2.49544 17.8835 2.88294 18.8502 3.39961C19.0002 3.46628 19.0877 3.56628 19.1127 3.69961C19.1377 3.83294 19.1252 3.94961 19.0752 4.04961C19.0085 4.14961 18.9169 4.22878 18.8002 4.28711C18.6835 4.34544 18.5585 4.33294 18.4252 4.24961C17.5252 3.79961 16.5794 3.44961 15.5877 3.19961C14.596 2.94961 13.5919 2.82461 12.5752 2.82461C11.5419 2.82461 10.5335 2.94128 9.5502 3.17461C8.56686 3.40794 7.6252 3.76628 6.7252 4.24961ZM9.8752 21.8996C8.90853 20.9163 8.18353 19.8454 7.7002 18.6871C7.21686 17.5288 6.9752 16.2413 6.9752 14.8246C6.9752 13.2913 7.51686 11.9829 8.6002 10.8996C9.68353 9.81628 11.0085 9.27461 12.5752 9.27461C14.1252 9.27461 15.4544 9.80378 16.5627 10.8621C17.671 11.9204 18.2252 13.2079 18.2252 14.7246C18.2252 14.8913 18.1877 15.0288 18.1127 15.1371C18.0377 15.2454 17.9169 15.2996 17.7502 15.2996C17.5669 15.2996 17.4335 15.2454 17.3502 15.1371C17.2669 15.0288 17.2252 14.8913 17.2252 14.7246C17.2252 13.4579 16.771 12.3913 15.8627 11.5246C14.9544 10.6579 13.8585 10.2246 12.5752 10.2246C11.2919 10.2246 10.2002 10.6746 9.3002 11.5746C8.4002 12.4746 7.9502 13.5579 7.9502 14.8246C7.9502 16.1579 8.15853 17.3204 8.5752 18.3121C8.99186 19.3038 9.6752 20.2913 10.6252 21.2746C10.7419 21.3913 10.8002 21.5079 10.8002 21.6246C10.8002 21.7413 10.7669 21.8413 10.7002 21.9246C10.6169 22.0413 10.4877 22.0996 10.3127 22.0996C10.1377 22.0996 9.99186 22.0329 9.8752 21.8996ZM17.9252 20.1996C16.3085 20.1996 14.9335 19.7288 13.8002 18.7871C12.6669 17.8454 12.1002 16.4996 12.1002 14.7496C12.1002 14.5996 12.1419 14.4746 12.2252 14.3746C12.3085 14.2746 12.4252 14.2246 12.5752 14.2246C12.7252 14.2246 12.8419 14.2746 12.9252 14.3746C13.0085 14.4746 13.0502 14.5996 13.0502 14.7496C13.0502 16.2163 13.5294 17.3329 14.4877 18.0996C15.446 18.8663 16.5919 19.2496 17.9252 19.2496C18.0919 19.2496 18.2835 19.2329 18.5002 19.1996C18.7169 19.1663 18.9169 19.1496 19.1002 19.1496C19.2335 19.1496 19.346 19.1913 19.4377 19.2746C19.5294 19.3579 19.5669 19.4496 19.5502 19.5496C19.5502 19.6829 19.521 19.7871 19.4627 19.8621C19.4044 19.9371 19.3252 19.9913 19.2252 20.0246C18.9919 20.1079 18.7544 20.1579 18.5127 20.1746C18.271 20.1913 18.0752 20.1996 17.9252 20.1996Z" fill="#0078C2"/>
</g>
</svg>
