<svg width="52" height="52" viewBox="0 0 52 52" fill="none" xmlns="http://www.w3.org/2000/svg">
<rect width="52" height="52" rx="26" fill="#7E16BD"/>
<path d="M16.8585 21.4285V30.5714M30.5728 16.8571L21.43 16.8571M35.1443 21.4285V30.5714M30.5728 35.1428H21.43M14.7252 21.4285H18.9919C19.8453 21.4285 20.272 21.4285 20.598 21.2624C20.8847 21.1163 21.1178 20.8832 21.2639 20.5965C21.43 20.2705 21.43 19.8438 21.43 18.9904V14.7237C21.43 13.8703 21.43 13.4436 21.2639 13.1177C21.1178 12.8309 20.8847 12.5978 20.598 12.4517C20.272 12.2856 19.8453 12.2856 18.9919 12.2856H14.7252C13.8718 12.2856 13.4451 12.2856 13.1191 12.4517C12.8324 12.5978 12.5993 12.8309 12.4532 13.1177C12.2871 13.4436 12.2871 13.8703 12.2871 14.7237V18.9904C12.2871 19.8438 12.2871 20.2705 12.4532 20.5965C12.5993 20.8832 12.8324 21.1163 13.1191 21.2624C13.4451 21.4285 13.8718 21.4285 14.7252 21.4285ZM14.7252 39.7142H18.9919C19.8453 39.7142 20.272 39.7142 20.598 39.5481C20.8847 39.402 21.1178 39.1689 21.2639 38.8822C21.43 38.5562 21.43 38.1295 21.43 37.2761V33.0095C21.43 32.156 21.43 31.7293 21.2639 31.4034C21.1178 31.1167 20.8847 30.8835 20.598 30.7374C20.272 30.5714 19.8453 30.5714 18.9919 30.5714H14.7252C13.8718 30.5714 13.4451 30.5714 13.1191 30.7374C12.8324 30.8835 12.5993 31.1167 12.4532 31.4034C12.2871 31.7293 12.2871 32.156 12.2871 33.0095V37.2761C12.2871 38.1295 12.2871 38.5562 12.4532 38.8822C12.5993 39.1689 12.8324 39.402 13.1191 39.5481C13.4451 39.7142 13.8718 39.7142 14.7252 39.7142ZM33.0109 21.4285H37.2776C38.131 21.4285 38.5577 21.4285 38.8837 21.2624C39.1704 21.1163 39.4035 20.8832 39.5496 20.5965C39.7157 20.2705 39.7157 19.8438 39.7157 18.9904V14.7237C39.7157 13.8703 39.7157 13.4436 39.5496 13.1177C39.4035 12.8309 39.1704 12.5978 38.8837 12.4517C38.5577 12.2856 38.131 12.2856 37.2776 12.2856H33.0109C32.1575 12.2856 31.7308 12.2856 31.4048 12.4517C31.1181 12.5978 30.885 12.8309 30.7389 13.1177C30.5728 13.4436 30.5728 13.8703 30.5728 14.7237V18.9904C30.5728 19.8438 30.5728 20.2705 30.7389 20.5965C30.885 20.8832 31.1181 21.1163 31.4048 21.2624C31.7308 21.4285 32.1575 21.4285 33.0109 21.4285ZM33.0109 39.7142H37.2776C38.131 39.7142 38.5577 39.7142 38.8837 39.5481C39.1704 39.402 39.4035 39.1689 39.5496 38.8822C39.7157 38.5562 39.7157 38.1295 39.7157 37.2761V33.0095C39.7157 32.156 39.7157 31.7293 39.5496 31.4034C39.4035 31.1167 39.1704 30.8835 38.8837 30.7374C38.5577 30.5714 38.131 30.5714 37.2776 30.5714H33.0109C32.1575 30.5714 31.7308 30.5714 31.4048 30.7374C31.1181 30.8835 30.885 31.1167 30.7389 31.4034C30.5728 31.7293 30.5728 32.156 30.5728 33.0095V37.2761C30.5728 38.1295 30.5728 38.5562 30.7389 38.8822C30.885 39.1689 31.1181 39.402 31.4048 39.5481C31.7308 39.7142 32.1575 39.7142 33.0109 39.7142Z" stroke="white" stroke-width="1.90857" stroke-linecap="round"/>
</svg>
