<svg width="32" height="32" viewBox="0 0 32 32" fill="none" xmlns="http://www.w3.org/2000/svg">
<g id="image 105">
<g id="Group">
<g id="Vrstva_x0020_1_9_">
<path id="Vector" fill-rule="evenodd" clip-rule="evenodd" d="M8.19967 0H18.9024L27.9679 9.45791V27.8326C27.9679 30.1328 26.1007 32 23.8005 32H8.19967C5.89945 32 4.03223 30.1328 4.03223 27.8326V4.16744C4.03223 1.86723 5.89945 0 8.19967 0Z" fill="#AE0AC9"/>
<g id="Group_2">
<path id="Vector_2" opacity="0.302" fill-rule="evenodd" clip-rule="evenodd" d="M18.8887 0V9.37673H27.9677L18.8887 0Z" fill="white"/>
<path id="Vector_3" fill-rule="evenodd" clip-rule="evenodd" d="M20.0657 15.9932H11.9338C11.3249 15.9932 10.8242 16.4938 10.8242 17.1027V22.2714C10.8242 22.8803 11.3248 23.3809 11.9338 23.3809H20.0657C20.6745 23.3809 21.1616 22.8803 21.1616 22.2714V17.1027C21.1616 16.4938 20.6746 15.9932 20.0657 15.9932ZM14.1528 17.3868C14.8158 17.3868 15.3435 17.928 15.3435 18.5775C15.3435 19.2405 14.8158 19.7817 14.1528 19.7817C13.4898 19.7817 12.9486 19.2405 12.9486 18.5775C12.9486 17.928 13.4898 17.3868 14.1528 17.3868ZM20.431 22.2714C20.431 22.4744 20.2686 22.6502 20.0657 22.6502H11.9338C11.7308 22.6502 11.5684 22.4744 11.5684 22.2714V22.0549L13.0432 20.5801L14.261 21.7979C14.4098 21.9467 14.6399 21.9467 14.7887 21.7979L17.8466 18.7399L20.431 21.3243V22.2714Z" fill="white"/>
</g>
</g>
</g>
</g>
</svg>
