<svg width="24" height="24" viewBox="0 0 24 24" fill="none" xmlns="http://www.w3.org/2000/svg">
<g id="password_FILL0_wght300_GRAD0_opsz24 1">
<path id="Vector" d="M3.00045 18.7499C2.78795 18.7499 2.60983 18.678 2.4661 18.5342C2.32233 18.3904 2.25045 18.2122 2.25045 17.9996C2.25045 17.787 2.32231 17.6089 2.46605 17.4653C2.6098 17.3217 2.78792 17.2499 3.00042 17.2499H21.0004C21.2129 17.2499 21.391 17.3218 21.5348 17.4656C21.6785 17.6095 21.7504 17.7877 21.7504 18.0002C21.7504 18.2128 21.6785 18.3909 21.5348 18.5345C21.391 18.6781 21.2129 18.7499 21.0004 18.7499H3.00045ZM2.57635 12.4419C2.4308 12.3622 2.33817 12.2426 2.29847 12.0832C2.25877 11.9238 2.27931 11.7717 2.36007 11.6268L2.9697 10.5461H1.75045C1.57823 10.5461 1.43581 10.4898 1.3232 10.3773C1.2106 10.2648 1.1543 10.1225 1.1543 9.95037C1.1543 9.77829 1.21061 9.63583 1.32322 9.52299C1.43582 9.41018 1.57823 9.35377 1.75045 9.35377H2.9697L2.36007 8.32299C2.27931 8.17813 2.25877 8.026 2.29847 7.8666C2.33817 7.7072 2.4308 7.58764 2.57635 7.50794C2.7219 7.42824 2.87416 7.4083 3.03315 7.44812C3.19211 7.48794 3.31134 7.58085 3.39082 7.72685L4.00045 8.75765L4.61007 7.72685C4.68955 7.58085 4.80878 7.48794 4.96775 7.44812C5.12673 7.4083 5.279 7.42824 5.42455 7.50794C5.5701 7.58764 5.66272 7.7072 5.70242 7.8666C5.74212 8.026 5.72159 8.17813 5.64082 8.32299L5.0312 9.35377H6.25045C6.42266 9.35377 6.56507 9.41004 6.67767 9.52257C6.79029 9.63509 6.8466 9.77739 6.8466 9.94947C6.8466 10.1216 6.79029 10.264 6.67767 10.3768C6.56507 10.4897 6.42266 10.5461 6.25045 10.5461H5.0312L5.64082 11.6268C5.72159 11.7717 5.74212 11.9238 5.70242 12.0832C5.66272 12.2426 5.5701 12.3622 5.42455 12.4419C5.279 12.5216 5.12673 12.5415 4.96775 12.5017C4.80878 12.4619 4.68955 12.369 4.61007 12.223L4.00045 11.1422L3.39082 12.223C3.31134 12.369 3.19211 12.4619 3.03315 12.5017C2.87416 12.5415 2.7219 12.5216 2.57635 12.4419ZM10.5763 12.4419C10.4308 12.3622 10.3382 12.2426 10.2985 12.0832C10.2588 11.9238 10.2793 11.7717 10.3601 11.6268L10.9697 10.5461H9.75045C9.57823 10.5461 9.43582 10.4898 9.32322 10.3773C9.21061 10.2648 9.1543 10.1225 9.1543 9.95037C9.1543 9.77829 9.21061 9.63583 9.32322 9.52299C9.43582 9.41018 9.57823 9.35377 9.75045 9.35377H10.9697L10.3601 8.32299C10.2793 8.17813 10.2588 8.026 10.2985 7.8666C10.3382 7.7072 10.4308 7.58764 10.5763 7.50794C10.7219 7.42824 10.8742 7.4083 11.0331 7.44812C11.1921 7.48794 11.3113 7.58085 11.3908 7.72685L12.0004 8.75765L12.6101 7.72685C12.6896 7.58085 12.8088 7.48794 12.9677 7.44812C13.1267 7.4083 13.279 7.42824 13.4245 7.50794C13.5701 7.58764 13.6627 7.7072 13.7024 7.8666C13.7421 8.026 13.7216 8.17813 13.6408 8.32299L13.0312 9.35377H14.2504C14.4227 9.35377 14.5651 9.41004 14.6777 9.52257C14.7903 9.63509 14.8466 9.77739 14.8466 9.94947C14.8466 10.1216 14.7903 10.264 14.6777 10.3768C14.5651 10.4897 14.4227 10.5461 14.2504 10.5461H13.0312L13.6408 11.6268C13.7216 11.7717 13.7421 11.9238 13.7024 12.0832C13.6627 12.2426 13.5701 12.3622 13.4245 12.4419C13.279 12.5216 13.1267 12.5415 12.9677 12.5017C12.8088 12.4619 12.6896 12.369 12.6101 12.223L12.0004 11.1422L11.3908 12.223C11.3113 12.369 11.1921 12.4619 11.0331 12.5017C10.8742 12.5415 10.7219 12.5216 10.5763 12.4419ZM18.5763 12.4419C18.4308 12.3622 18.3382 12.2426 18.2985 12.0832C18.2588 11.9238 18.2793 11.7717 18.3601 11.6268L18.9697 10.5461H17.7504C17.5782 10.5461 17.4358 10.4898 17.3232 10.3773C17.2106 10.2648 17.1543 10.1225 17.1543 9.95037C17.1543 9.77829 17.2106 9.63583 17.3232 9.52299C17.4358 9.41018 17.5782 9.35377 17.7504 9.35377H18.9697L18.3601 8.32299C18.2793 8.17813 18.2588 8.026 18.2985 7.8666C18.3382 7.7072 18.4308 7.58764 18.5763 7.50794C18.7219 7.42824 18.8742 7.4083 19.0331 7.44812C19.1921 7.48794 19.3113 7.58085 19.3908 7.72685L20.0004 8.75765L20.6101 7.72685C20.6896 7.58085 20.8088 7.48794 20.9677 7.44812C21.1267 7.4083 21.279 7.42824 21.4245 7.50794C21.5701 7.58764 21.6627 7.7072 21.7024 7.8666C21.7421 8.026 21.7216 8.17813 21.6408 8.32299L21.0312 9.35377H22.2504C22.4227 9.35377 22.5651 9.41004 22.6777 9.52257C22.7903 9.63509 22.8466 9.77739 22.8466 9.94947C22.8466 10.1216 22.7903 10.264 22.6777 10.3768C22.5651 10.4897 22.4227 10.5461 22.2504 10.5461H21.0312L21.6408 11.6268C21.7216 11.7717 21.7421 11.9238 21.7024 12.0832C21.6627 12.2426 21.5701 12.3622 21.4245 12.4419C21.279 12.5216 21.1267 12.5415 20.9677 12.5017C20.8088 12.4619 20.6896 12.369 20.6101 12.223L20.0004 11.1422L19.3908 12.223C19.3113 12.369 19.1921 12.4619 19.0331 12.5017C18.8742 12.5415 18.7219 12.5216 18.5763 12.4419Z" fill="#0078C2"/>
</g>
</svg>
