<svg width="32" height="32" viewBox="0 0 32 32" fill="none" xmlns="http://www.w3.org/2000/svg">
<g id="ppt 1">
<g id="Group">
<g id="Vrstva_x0020_1_18_">
<path id="Vector" fill-rule="evenodd" clip-rule="evenodd" d="M8.20008 0H18.8987L27.9662 9.45128V27.8341C27.9662 30.1369 26.1031 32 23.8083 32H8.20008C5.89724 32 4.03418 30.1369 4.03418 27.8341V4.1659C4.03414 1.86306 5.8972 0 8.20008 0Z" fill="#E03303"/>
<g id="Group_2">
<path id="Vector_2" opacity="0.302" fill-rule="evenodd" clip-rule="evenodd" d="M18.8906 0V9.37931H27.9661L18.8906 0Z" fill="white"/>
<path id="Vector_3" d="M9.06348 22.8924V17.0793H11.5342C12.1419 17.0793 12.6297 17.2473 12.9975 17.5911C13.3573 17.9269 13.5412 18.3747 13.5412 18.9424C13.5412 19.5021 13.3573 19.9579 12.9975 20.2937C12.6297 20.6296 12.1419 20.7975 11.5342 20.7975H10.5427V22.8924H9.06348ZM10.5428 19.5341H11.3664C11.5902 19.5341 11.7581 19.4861 11.8861 19.3822C12.006 19.2782 12.062 19.1263 12.062 18.9424C12.062 18.7505 12.0061 18.6066 11.8861 18.5026C11.7582 18.3987 11.5903 18.3427 11.3664 18.3427H10.5428V19.5341ZM14.1649 22.8924V17.0793H16.6357C17.2434 17.0793 17.7311 17.2473 18.099 17.5911C18.4668 17.9269 18.6427 18.3747 18.6427 18.9424C18.6427 19.5021 18.4668 19.9579 18.099 20.2937C17.7311 20.6296 17.2434 20.7975 16.6357 20.7975H15.6522V22.8924H14.1649ZM15.6522 19.5341H16.4678C16.6916 19.5341 16.8676 19.4861 16.9875 19.3822C17.1074 19.2782 17.1715 19.1263 17.1715 18.9424C17.1715 18.7505 17.1075 18.6066 16.9875 18.5026C16.8676 18.3987 16.6917 18.3427 16.4678 18.3427H15.6522V19.5341ZM20.7776 22.8924V18.3427H19.1225V17.0793H23.9281V18.3427H22.2649V22.8924H20.7776Z" fill="white"/>
</g>
</g>
</g>
</g>
</svg>
