<svg width="106" height="37" viewBox="0 0 106 37" fill="none" xmlns="http://www.w3.org/2000/svg">
<g id="Group">
<path id="Vector" d="M77.4217 32.4915C71.6292 32.4915 65.8301 32.4915 60.0376 32.4915C57.6868 32.4915 56.1348 31.1199 56.1348 29.0421C56.1348 20.5054 56.1348 11.9629 56.1348 3.42625C56.1348 1.37745 57.6933 0 60.0051 0C71.6487 0 83.2922 0 94.9422 0C97.254 0 98.8125 1.37745 98.819 3.42625C98.819 11.9803 98.819 20.5402 98.819 29.0942C98.819 31.1083 97.2475 32.4973 94.9747 32.4973C89.1237 32.4973 83.2727 32.4973 77.4217 32.4973V32.4915ZM89.4029 6.19272C88.9224 6.16957 88.247 6.21587 87.5781 6.2969C83.6039 6.77727 80.9544 9.21963 80.8764 12.3391C80.8375 13.9192 81.1882 15.366 82.6038 16.4657C83.6363 17.2702 84.9156 17.4496 86.2014 17.629C87.8314 17.8605 89.4938 17.8837 91.1238 18.1325C93.0784 18.4277 94.2474 19.2958 94.5656 20.7311C95.0201 22.7684 93.8577 24.7246 91.6953 25.5638C90.6432 25.9747 89.5328 26.1078 88.3964 26.1136C86.5976 26.1136 84.8832 25.8647 83.3636 24.9214C82.8636 24.6088 82.5908 24.2153 82.6038 23.6597C82.6103 23.243 82.5519 22.8205 82.5973 22.4038C82.6428 21.9523 82.461 21.8424 81.9674 21.8424C81.4999 21.8424 81.3505 21.9523 81.3765 22.3748C81.4349 23.3645 81.331 24.3484 81.2401 25.3323C81.1232 26.5303 80.8829 26.2641 82.1428 26.6287C85.3053 27.5547 88.5003 27.7862 91.7212 26.866C94.5785 26.0557 97.5138 23.6018 97.5527 20.4128C97.5787 18.0746 96.2994 16.402 93.8837 15.8696C92.8057 15.6323 91.7082 15.5165 90.6043 15.4181C89.2601 15.2966 87.9093 15.1982 86.5911 14.9088C85.1429 14.5963 84.2208 13.786 83.8831 12.4896C83.3636 10.4813 84.5195 8.56563 86.7209 7.87112C89.1042 7.11873 91.416 7.42548 93.6369 8.43831C94.072 8.63509 94.2863 8.96498 94.3772 9.38747C94.4941 9.93729 94.4811 10.4871 94.4617 11.0369C94.4487 11.3784 94.5526 11.5289 94.9552 11.4884C95.3058 11.4536 95.715 11.5983 95.6955 11.0311C95.6565 9.96044 95.7734 8.88974 96.0526 7.84797C96.1436 7.51808 96.0527 7.38496 95.702 7.26342C93.7408 6.5747 91.7277 6.15221 89.4094 6.16957L89.4029 6.19272ZM71.6681 6.19851C70.3823 6.16378 69.116 6.2969 67.8562 6.49946C61.8689 7.48335 58.044 11.5462 58.1349 16.9461C58.2063 21.1768 60.3818 24.3368 64.6872 26.1541C69.0576 27.9946 73.5254 27.8267 77.9802 26.2641C78.8828 25.9458 79.5192 25.5001 79.766 24.6493C79.8244 24.4584 79.8829 24.3252 79.6816 24.169C79.4673 24.0011 79.3374 24.1458 79.1945 24.2384C78.5257 24.6436 77.8243 24.9966 77.0516 25.2281C75.8372 25.5985 74.5644 25.7143 73.2981 25.8474C69.0771 26.2872 64.8301 24.3426 62.8949 21.0321C61.726 19.0412 61.4143 16.9056 61.739 14.7005C62.1286 12.0208 63.4858 9.82154 66.2328 8.57142C69.9667 6.86987 73.7007 7.15925 77.3113 8.9997C77.5906 9.14439 77.636 9.34117 77.6425 9.57846C77.662 10.1804 77.688 10.7823 77.701 11.3842C77.7139 11.8993 78.149 11.7025 78.4412 11.7372C78.7594 11.7777 78.8893 11.6909 78.9153 11.3668C78.9997 10.3019 79.0906 9.2312 79.4348 8.20101C79.7205 7.34445 79.7141 7.33866 78.7335 7.14767C76.4087 6.69045 74.0968 6.11748 71.6811 6.19272L71.6681 6.19851Z" fill="#34C240"/>
<path id="Vector_2" d="M6.26075 15.4133C7.05949 14.7882 7.76084 14.2905 8.40373 13.7291C10.5922 11.825 13.1702 11.8829 15.7613 12.7163C18.3588 13.5497 19.7161 15.3844 19.9239 17.8094C20.1122 20.0665 19.5277 22.1616 17.9173 23.9789C17.6121 24.3204 17.2614 24.6329 16.8523 24.8702C15.6379 25.5995 14.4106 26.3113 13.1832 27.029C11.339 28.1055 9.39729 28.065 7.39718 27.4399C6.25425 27.0811 6.24776 27.0811 6.25426 28.1981C6.26724 29.9865 6.28672 31.7806 6.3127 33.569C6.3127 33.8178 6.34516 34.0725 6.37763 34.3214C6.44907 34.848 6.77377 35.1606 7.3712 35.2647C7.9102 35.3631 8.46217 35.3573 9.00116 35.3342C9.4947 35.311 9.42327 35.5715 9.43625 35.8435C9.45574 36.1387 9.35833 36.2544 8.99467 36.2428C6.13737 36.1387 3.28005 36.1039 0.422747 36.2428C0.0266203 36.2602 0.000645215 36.0866 0.00713909 35.8203C0.013633 35.5657 -0.0448087 35.311 0.416257 35.3342C0.903297 35.3573 1.39683 35.3515 1.88387 35.3168C2.71509 35.2532 2.96186 35.0274 3.05927 34.2982C3.22162 33.1349 3.20213 31.96 3.20213 30.7909C3.20213 25.9409 3.30603 21.0851 3.13069 16.2351C3.1242 15.9689 3.09173 15.7027 3.05277 15.4365C2.94237 14.5857 2.74107 14.4063 1.77997 14.3542C1.38385 14.331 0.987717 14.3542 0.598084 14.3368C0.351317 14.3252 0.0136365 14.4641 0.000648782 14.0243C-0.0058451 13.6481 0.0266247 13.405 0.559123 13.3645C1.74101 13.2719 2.89692 13.0404 4.03984 12.7452C4.57883 12.6063 5.11133 12.4385 5.64383 12.2649C6.19581 12.0854 6.29971 12.1433 6.29322 12.6816C6.29322 13.3992 6.26074 14.1227 6.24776 14.8403C6.24776 14.985 6.24776 15.1355 6.24776 15.4191L6.26075 15.4133ZM16.8263 19.8003C16.8393 19.3836 16.8003 18.8859 16.6899 18.3939C16.2808 16.4609 15.0924 15.0834 12.9559 14.4815C10.8259 13.8796 8.95571 14.3715 7.33873 15.7085C6.65038 16.2757 6.28023 16.9586 6.26075 17.8325C6.22178 19.5225 6.32568 21.2183 6.1958 22.8967C6.11138 23.9674 6.60492 24.5982 7.48809 25.1885C10.3454 27.0927 14.2612 26.3287 15.8912 23.5217C16.5535 22.3816 16.8393 21.1662 16.8198 19.8061L16.8263 19.8003Z" fill="#0078C2"/>
<path id="Vector_3" d="M54.6357 19.8627C54.7461 25.6503 48.395 28.9203 42.8233 27.5833C40.7323 27.0798 39.1608 25.9223 38.2127 24.2034C36.9658 21.9462 36.758 19.5618 37.6996 17.1773C38.8555 14.2545 41.9077 12.3736 45.5507 12.2347C47.5833 12.1536 49.5445 12.4083 51.2653 13.4501C53.6876 14.9201 54.6422 17.0441 54.6292 19.8569L54.6357 19.8627ZM51.2264 20.8234C51.2264 20.5572 51.2459 20.2852 51.2264 20.019C51.0965 18.2943 50.7069 16.6274 49.525 15.2037C48.3626 13.7973 46.7586 13.2186 44.8364 13.4385C43.0506 13.641 41.7258 14.4918 41.1479 16.0313C39.9595 19.1798 40.453 22.1893 42.4791 24.95C43.5701 26.4374 45.291 26.9294 47.2197 26.6631C49.1808 26.3911 50.2978 25.2394 50.8562 23.6131C51.1679 22.7102 51.2589 21.7784 51.2199 20.835L51.2264 20.8234Z" fill="#0078C2"/>
<path id="Vector_4" d="M28.2945 15.7171C28.9829 15.1673 29.5024 14.5017 30.0673 13.8824C31.1908 12.6439 32.5675 11.9725 34.4052 12.3082C35.1455 12.4413 35.204 12.5223 35.1001 13.1763C34.9507 14.1371 34.8728 15.1036 34.8598 16.0759C34.8598 16.2438 34.9378 16.4811 34.6131 16.4984C34.3598 16.51 34.0806 16.5794 33.9247 16.3016C33.4052 15.3698 32.548 14.93 31.3986 15.0689C30.1193 15.2194 29.2361 15.8676 28.7426 16.9267C28.4633 17.5228 28.3919 18.1595 28.3529 18.7961C28.2101 21.0532 28.1906 23.3104 28.4309 25.5676C28.4893 26.1116 28.7751 26.4241 29.3725 26.5341C30.0024 26.6498 30.6388 26.7019 31.2752 26.6788C31.7038 26.6614 31.9181 26.7135 31.9116 27.1765C31.8986 27.6453 31.6064 27.5874 31.2817 27.5701C28.7231 27.4543 26.171 27.4717 23.6124 27.518C23.2163 27.5238 22.8267 27.5469 22.4305 27.5701C22.1448 27.5874 21.9435 27.5527 21.9825 27.2344C22.0149 26.9682 21.8721 26.6441 22.3916 26.6267C22.9565 26.6093 23.515 26.5572 24.0735 26.4994C24.7618 26.4299 25.0021 26.2505 25.0476 25.6602C25.3138 22.2166 25.4372 18.7787 25.08 15.3351C25.0021 14.6232 24.7878 14.4496 23.9761 14.3686C23.5085 14.3223 23.0345 14.3512 22.5669 14.3339C22.3201 14.3223 21.976 14.4554 21.9695 14.0213C21.963 13.6451 21.9889 13.3963 22.5279 13.3558C23.4825 13.2921 24.4242 13.1069 25.3528 12.9043C26.1061 12.7423 26.8269 12.505 27.5347 12.233C28.0542 12.0304 28.2296 12.1346 28.2296 12.6381C28.2296 13.6393 28.2231 14.6464 28.2166 15.6476C28.2166 15.6592 28.2426 15.6708 28.301 15.7171H28.2945Z" fill="#0078C2"/>
<path id="Vector_5" d="M99.1676 3.10824C99.1676 1.48772 100.57 0.243388 102.382 0.254963C104.213 0.260751 105.584 1.46457 105.571 3.06773C105.558 4.65932 104.298 5.95574 102.304 5.94417C100.09 5.93259 99.0767 4.39309 99.1611 3.10824H99.1676ZM104.843 3.11982C104.843 1.7308 103.856 0.799 102.376 0.787425C100.934 0.781637 99.8754 1.7308 99.8754 3.05037C99.8754 4.46833 100.882 5.4175 102.376 5.40013C103.843 5.38277 104.843 4.45676 104.843 3.11982Z" fill="#FEFEFE"/>
<path id="Vector_6" d="M53.4511 5.75959C53.5874 5.73065 53.6654 5.77695 53.6978 5.86377C53.7498 6.00846 53.7628 6.16472 53.6004 6.27468C53.3472 6.44831 53.029 6.57564 52.8471 6.78978C52.0938 7.67528 51.0548 8.30034 50.2691 9.16269C49.8859 9.5794 49.5288 10.0598 48.9508 10.3434C48.743 10.4417 48.5807 10.6501 48.4573 10.8642C48.0611 11.553 46.9117 11.6514 46.4377 11.0263C46.1909 10.7022 46.3792 10.3202 46.6909 10.1466C47.1325 9.89772 47.4572 9.57361 47.7624 9.22057C47.8404 9.12797 47.9313 9.02379 48.0482 8.98328C49.1456 8.6013 49.9573 7.83155 50.9769 7.35118C51.7821 6.9692 52.3146 6.27468 53.1329 5.92164C53.2497 5.86955 53.3602 5.80589 53.4511 5.75959Z" fill="#EEA23E"/>
<path id="Vector_7" d="M89.402 6.1929C91.7203 6.17554 93.7334 6.59225 95.6945 7.28676C96.0452 7.4083 96.1361 7.54141 96.0452 7.87131C95.766 8.91886 95.6491 9.98378 95.688 11.0545C95.7075 11.6275 95.3049 11.477 94.9477 11.5117C94.5386 11.5522 94.4347 11.4017 94.4542 11.0603C94.4802 10.5104 94.4867 9.96063 94.3698 9.41081C94.2789 8.98253 94.0646 8.65842 93.6295 8.46164C91.4086 7.4546 89.1032 7.14207 86.7135 7.89446C84.5186 8.58897 83.3562 10.5047 83.8757 12.513C84.2068 13.8036 85.1355 14.6138 86.5836 14.9322C87.9019 15.2158 89.2461 15.3199 90.5968 15.4415C91.7008 15.5399 92.7983 15.6498 93.8762 15.8929C96.2985 16.4312 97.5713 18.098 97.5453 20.4362C97.5063 23.6309 94.5711 26.0791 91.7138 26.8893C88.4928 27.8038 85.2913 27.5723 82.1353 26.652C80.869 26.2816 81.1158 26.5536 81.2327 25.3556C81.3236 24.3717 81.4275 23.3878 81.369 22.3982C81.3431 21.9757 81.4924 21.8715 81.96 21.8657C82.4535 21.8657 82.6353 21.9699 82.5899 22.4271C82.5509 22.8438 82.6094 23.2663 82.5964 23.683C82.5834 24.2386 82.8561 24.6322 83.3562 24.9447C84.8757 25.8881 86.5901 26.1427 88.3889 26.1369C89.5253 26.1369 90.6358 25.998 91.6878 25.5871C93.8503 24.7421 95.0127 22.7859 94.5581 20.7545C94.2399 19.3134 93.071 18.4452 91.1163 18.1559C89.4864 17.9128 87.8239 17.8838 86.194 17.6523C84.9082 17.4729 83.6289 17.2877 82.5964 16.489C81.1872 15.3894 80.83 13.9425 80.869 12.3625C80.9469 9.24297 83.5964 6.79481 87.5707 6.32023C88.246 6.23921 88.9149 6.19291 89.3955 6.21606L89.402 6.1929Z" fill="#FEFEFE"/>
<path id="Vector_8" d="M71.667 6.19909C74.0827 6.12385 76.3945 6.69682 78.7193 7.15404C79.6999 7.34503 79.7064 7.35661 79.4207 8.20738C79.0765 9.24336 78.9856 10.3083 78.9011 11.3732C78.8752 11.6973 78.7453 11.7841 78.4271 11.7436C78.1349 11.7089 77.6998 11.9057 77.6868 11.3906C77.6738 10.7886 77.6478 10.1867 77.6283 9.58483C77.6219 9.34175 77.5699 9.14497 77.2972 9.00607C73.6866 7.16562 69.9591 6.87624 66.2186 8.57779C63.4717 9.82791 62.1145 12.0272 61.7248 14.7068C61.4066 16.9119 61.7183 19.0475 62.8808 21.0385C64.8224 24.349 69.0629 26.2936 73.2839 25.8537C74.5502 25.7206 75.823 25.6049 77.0374 25.2345C77.8037 25.003 78.5115 24.6499 79.1804 24.2448C79.3298 24.158 79.4531 24.0133 79.6674 24.1753C79.8687 24.3316 79.8103 24.4647 79.7519 24.6557C79.5051 25.5065 78.8752 25.9579 77.966 26.2704C73.5112 27.8331 69.0434 28.0009 64.6731 26.1605C60.3676 24.3432 58.1922 21.1774 58.1207 16.9524C58.0298 11.5526 61.8547 7.48972 67.8421 6.50583C69.1019 6.29748 70.3682 6.17015 71.654 6.20488L71.667 6.19909Z" fill="#FEFEFE"/>
<path id="Vector_9" d="M102.96 3.16987C103.454 3.42452 103.603 3.76599 103.727 4.12482C103.779 4.26951 103.98 4.48365 103.714 4.54153C103.467 4.59362 103.097 4.72095 102.928 4.37369C102.837 4.19427 102.792 3.99171 102.72 3.80072C102.61 3.50555 102.363 3.35508 102.032 3.40716C101.701 3.46504 101.876 3.73127 101.843 3.91069C101.817 4.0438 101.837 4.17691 101.843 4.31003C101.85 4.5531 101.675 4.56468 101.467 4.57047C101.259 4.57047 101.097 4.5531 101.097 4.31003C101.097 3.47083 101.097 2.63741 101.097 1.79821C101.097 1.55514 101.272 1.49147 101.506 1.49147C101.824 1.49147 102.142 1.4799 102.467 1.49147C102.986 1.50884 103.512 1.56092 103.688 2.10496C103.85 2.60848 103.558 2.93258 102.96 3.1583V3.16987ZM101.843 2.42906C101.798 2.71265 101.843 2.88628 102.24 2.86892C102.584 2.85155 102.857 2.78789 102.869 2.44642C102.876 2.11074 102.603 2.06444 102.285 2.05287C101.96 2.04129 101.759 2.09917 101.843 2.42906Z" fill="#FEFEFE"/>
</g>
</svg>
