<svg width="34" height="36" viewBox="0 0 34 36" fill="none" xmlns="http://www.w3.org/2000/svg">
<g id="rate_review_FILL0_wght300_GRAD0_opsz24 2">
<path id="Vector" d="M9.37359 21.5414H10.9292C11.0999 21.5414 11.2624 21.5049 11.4168 21.4318C11.5712 21.3587 11.7074 21.2597 11.8255 21.1347L19.6362 12.9395C19.7688 12.7992 19.8351 12.6357 19.8351 12.4491C19.8351 12.2626 19.7688 12.0992 19.6362 11.9588L17.7837 9.99728C17.6511 9.85691 17.4967 9.78672 17.3206 9.78672C17.1444 9.78672 16.99 9.85691 16.8574 9.99728L9.11753 18.2675C8.99947 18.3925 8.90594 18.5367 8.83692 18.7002C8.76791 18.8636 8.7334 19.0357 8.7334 19.2165V20.8635C8.7334 21.0443 8.79742 21.2025 8.92546 21.3381C9.05351 21.4736 9.20288 21.5414 9.37359 21.5414ZM15.0539 21.5414H23.6901C23.9916 21.5414 24.244 21.4337 24.4474 21.2184C24.6508 21.003 24.7525 20.7357 24.7525 20.4165C24.7525 20.0972 24.6508 19.8299 24.4474 19.6146C24.244 19.3992 23.9916 19.2915 23.6901 19.2915H17.1789L15.0539 21.5414ZM8.16124 27.1664L5.32522 30.1693C4.92201 30.5962 4.45842 30.6928 3.93444 30.4592C3.41044 30.2255 3.14844 29.8048 3.14844 29.1972V7.37806C3.14844 6.62036 3.39635 5.979 3.89219 5.454C4.38802 4.929 4.99374 4.6665 5.70935 4.6665H27.5041C28.2197 4.6665 28.8255 4.929 29.3213 5.454C29.8171 5.979 30.065 6.62036 30.065 7.37806V24.4549C30.065 25.2126 29.8171 25.8539 29.3213 26.3789C28.8255 26.9039 28.2197 27.1664 27.5041 27.1664H8.16124ZM6.25423 24.9165H27.5041C27.6131 24.9165 27.713 24.8684 27.8039 24.7722C27.8947 24.6761 27.9401 24.5703 27.9401 24.4549V7.37806C27.9401 7.26266 27.8947 7.15687 27.8039 7.06069C27.713 6.96454 27.6131 6.91647 27.5041 6.91647H5.70935C5.60036 6.91647 5.50045 6.96454 5.40961 7.06069C5.31881 7.15687 5.2734 7.26266 5.2734 7.37806V25.955L6.25423 24.9165Z" fill="white"/>
</g>
</svg>
