<svg width="24" height="24" viewBox="0 0 24 24" fill="none" xmlns="http://www.w3.org/2000/svg">
<g id="strategy_FILL0_wght300_GRAD0_opsz24">
<path id="Vector" d="M5.29807 10.6769L2.95193 9.33845C2.81636 9.26335 2.70715 9.15447 2.6243 9.0118C2.54143 8.86912 2.5 8.71518 2.5 8.54998V5.87308C2.5 5.70788 2.54143 5.55394 2.6243 5.41128C2.70715 5.26859 2.81636 5.15971 2.95193 5.08463L5.29807 3.74618C5.43319 3.66924 5.58332 3.63078 5.74845 3.63078C5.91358 3.63078 6.06474 3.66924 6.20193 3.74618L8.54805 5.08463C8.68363 5.15971 8.79285 5.26859 8.8757 5.41128C8.95855 5.55394 8.99997 5.70788 8.99997 5.87308V8.54998C8.99997 8.71518 8.95855 8.86912 8.8757 9.0118C8.79285 9.15447 8.68363 9.26335 8.54805 9.33845L6.20193 10.6769C6.06681 10.7538 5.91668 10.7923 5.75155 10.7923C5.58642 10.7923 5.43526 10.7538 5.29807 10.6769ZM5.75 9.2L7.5 8.20578V6.2173L5.75 5.22305L3.99998 6.2173V8.20578L5.75 9.2ZM16.3846 11.3519V9.61345L18.5961 10.9154C18.8823 11.0803 19.1045 11.3015 19.2627 11.5789C19.4209 11.8563 19.5 12.1524 19.5 12.4673V17.1096C19.5 17.4245 19.4209 17.7206 19.2627 17.998C19.1045 18.2754 18.8823 18.4965 18.5961 18.6615L14.6538 20.9576C14.3671 21.1217 14.0653 21.2038 13.7484 21.2038C13.4315 21.2038 13.1307 21.1217 12.8461 20.9576L8.90382 18.6615C8.61761 18.4965 8.39541 18.2754 8.23722 17.998C8.07906 17.7206 7.99997 17.4245 7.99997 17.1096V12.4673C7.99997 12.1524 8.07906 11.8563 8.23722 11.5789C8.39541 11.3015 8.61761 11.0803 8.90382 10.9154L11.1153 9.61345V11.3519L9.49995 12.2942V17.2837L13.75 19.7519L18 17.2837V12.2942L16.3846 11.3519ZM14.5 7.99998V13.25C14.5 13.4625 14.428 13.6406 14.2842 13.7844C14.1404 13.9281 13.9622 14 13.7496 14C13.537 14 13.3589 13.9281 13.2154 13.7844C13.0718 13.6406 13 13.4625 13 13.25V3.40385C13 3.14777 13.0866 2.93311 13.2598 2.75988C13.4331 2.58663 13.6477 2.5 13.9038 2.5H19.8077C20.166 2.5 20.4347 2.65898 20.6139 2.97693C20.7931 3.29488 20.7788 3.60449 20.5711 3.90578L20.0096 4.74808C19.9057 4.89966 19.8538 5.0664 19.8538 5.2483C19.8538 5.4302 19.9057 5.59808 20.0096 5.75193L20.5711 6.59423C20.7788 6.89549 20.7931 7.2051 20.6139 7.52305C20.4347 7.841 20.166 7.99998 19.8077 7.99998H14.5Z" fill="#0078C2"/>
</g>
</svg>
